<?xml version="1.0" encoding="UTF-8"?>
<svg version="1.1" xmlns="http://www.w3.org/2000/svg" width="512" height="512">
<path d="M0 0 C1.8029856 0.05831978 3.60600633 0.1155617 5.40905762 0.17181396 C11.22186238 0.36129953 17.03274016 0.59043887 22.84375 0.828125 C23.80792847 0.86714935 24.77210693 0.90617371 25.76550293 0.94638062 C40.18188343 1.53390804 54.59351376 2.21345383 69.00469208 2.9158783 C73.55130873 3.13680096 78.09809001 3.35423795 82.64486504 3.57187271 C115.11107933 5.1270821 147.57398484 6.75019516 180.03475952 8.41490173 C183.20178625 8.57725537 186.36883683 8.73913805 189.53588867 8.90100098 C194.49767376 9.15492574 199.45933415 9.41116727 204.42090225 9.66929626 C206.22633904 9.76301334 208.0318063 9.85614565 209.83730698 9.94862366 C219.18799223 10.42837494 228.51896003 10.96119343 237.84375 11.828125 C240.13561696 17.66417567 241.93863329 23.49054945 243.52905273 29.55200195 C243.78067169 30.49753685 244.03229065 31.44307175 244.29153442 32.41725922 C245.12399188 35.54929954 245.95066125 38.68283717 246.77734375 41.81640625 C247.36763903 44.04173871 247.95830986 46.26697159 248.54933167 48.49211121 C249.80777744 53.2330546 251.06371097 57.97465342 252.31762695 62.71679688 C254.29953189 70.21200439 256.28697236 77.70573692 258.27539062 85.19921875 C260.6043798 93.97734616 262.93226396 102.75576472 265.25847816 111.53462791 C268.55988012 123.99309438 271.86828587 136.44965249 275.19140625 148.90234375 C275.48867174 150.01629202 275.48867174 150.01629202 275.7919426 151.15274429 C276.76195016 154.78721379 277.73229875 158.4215921 278.70288086 162.0559082 C280.65868177 169.37937519 282.61283368 176.70328205 284.56640625 184.02734375 C284.76752644 184.7813232 284.96864662 185.53530266 285.17586136 186.31212997 C288.74423921 199.69111558 292.30264246 213.07274577 295.85905647 226.454916 C296.78169826 229.92654096 297.70447743 233.39812937 298.62730408 236.8697052 C298.93534123 238.02851668 299.24337839 239.18732817 299.56075001 240.38125515 C300.18826687 242.74191139 300.81578905 245.10256621 301.44331646 247.46321964 C303.01338049 253.36980165 304.58305987 259.2764854 306.15194702 265.18338013 C312.25406199 288.15679752 318.36368998 311.12773929 324.59041405 334.06775093 C325.35479327 336.88402231 326.11834439 339.70051696 326.88166809 342.51707458 C328.97891073 350.25333677 331.07874564 357.98880063 333.19755173 365.71918869 C334.03340117 368.77413767 334.86330588 371.8306788 335.69168472 374.88766098 C336.07071703 376.28091417 336.45241953 377.67344427 336.83706284 379.06515884 C337.35700341 380.94706733 337.86687241 382.83174981 338.3762207 384.71655273 C338.66181351 385.76012436 338.94740631 386.80369598 339.24165344 387.87889099 C339.87928607 391.00219041 340.16698383 393.65271784 339.84375 396.828125 C336.53718632 399.03250079 335.26938528 399.1203193 331.3984375 399.28515625 C329.78195312 399.37700195 329.78195312 399.37700195 328.1328125 399.47070312 C325.88070763 399.58279301 323.62806338 399.68458375 321.375 399.77539062 C313.97989443 400.2189213 308.96334064 401.65352686 302.84375 405.828125 C301.99941406 406.35019531 301.15507812 406.87226563 300.28515625 407.41015625 C299.01382641 408.24273192 297.74300706 409.07608754 296.47265625 409.91015625 C294.84375 410.828125 294.84375 410.828125 292.84375 410.828125 C292.84375 411.488125 292.84375 412.148125 292.84375 412.828125 C292.121875 413.240625 291.4 413.653125 290.65625 414.078125 C287.06133004 416.31496408 285.06258306 418.19730726 282.84375 421.828125 C283.10326881 424.3169529 283.68540864 426.42191311 284.5234375 428.77734375 C284.68199219 429.79248047 284.68199219 429.79248047 284.84375 430.828125 C283.2769284 432.92523903 282.2829115 433.72874854 279.71144104 434.31063843 C278.86637497 434.36200958 278.0213089 434.41338074 277.15063477 434.46630859 C276.15152573 434.53330963 275.15241669 434.60031067 274.12303162 434.66934204 C273.00090775 434.72947479 271.87878387 434.78960754 270.72265625 434.8515625 C269.51348038 434.9269223 268.3043045 435.0022821 267.05848694 435.07992554 C263.4777931 435.30045778 259.89614516 435.49928593 256.31394196 435.69358826 C253.69975533 435.83596754 251.08580247 435.98218766 248.47186279 436.12902832 C235.00320037 436.88311906 221.53221459 437.58882326 208.06036377 438.28326416 C203.6557608 438.51142628 199.25138036 438.74373873 194.84699154 438.9759922 C190.56696625 439.20110749 186.28680283 439.4235019 182.0065937 439.64509201 C179.98093828 439.75029392 177.95532627 439.85633549 175.92976189 439.96327591 C155.82069243 441.02213655 155.82069243 441.02213655 146.84375 440.828125 C147.13507813 441.83746094 147.42640625 442.84679687 147.7265625 443.88671875 C150.40500537 453.28006877 152.88197586 462.71901665 155.21875 472.203125 C155.49348145 473.29036865 155.76821289 474.3776123 156.05126953 475.49780273 C156.42421143 477.03416382 156.42421143 477.03416382 156.8046875 478.6015625 C157.02946777 479.51341309 157.25424805 480.42526367 157.48583984 481.36474609 C157.85149417 483.8814256 157.65002541 485.43996093 156.84375 487.828125 C152.15450908 489.34338641 148.89592262 488.06051851 144.53125 486.265625 C143.83990967 485.99548584 143.14856934 485.72534668 142.4362793 485.44702148 C139.48930676 484.2950443 136.554449 483.11346488 133.61816406 481.93457031 C131.46811159 481.07626403 129.31251362 480.23317854 127.15625 479.390625 C126.49778076 479.11984131 125.83931152 478.84905762 125.16088867 478.57006836 C121.29533095 477.06166756 118.78360269 476.40289347 114.84375 477.828125 C112.85321183 478.88209165 110.90485118 480.01757526 108.9921875 481.20703125 C107.34476562 482.21733398 107.34476562 482.21733398 105.6640625 483.24804688 C104.51513996 483.96145903 103.36670726 484.67566064 102.21875 485.390625 C99.96027607 486.79552491 97.69685391 488.19105798 95.4296875 489.58203125 C94.4298584 490.20408447 93.4300293 490.8261377 92.39990234 491.46704102 C89.84375 492.828125 89.84375 492.828125 86.84375 492.828125 C85.59439356 487.76120522 84.34946346 482.69322461 83.10839844 477.62426758 C82.68672429 475.9045774 82.2638994 474.18516893 81.83984375 472.46606445 C77.32388976 454.15195386 77.32388976 454.15195386 75.84375 444.828125 C70.97303115 444.94809915 66.1024476 445.07241832 61.23193359 445.20043945 C59.58157213 445.2432456 57.93118158 445.28494748 56.28076172 445.32543945 C53.88239682 445.38448734 51.48416456 445.44732879 49.0859375 445.51171875 C48.29813904 445.53164886 47.51034058 445.55157898 46.69866943 445.57211304 C40.73467519 445.74460224 34.85456408 446.22882866 28.92626953 446.92211914 C24.87413149 446.79855878 22.38884651 445.79403086 18.84375 443.828125 C17.41646004 440.83118629 17.41646004 440.83118629 16.63967896 437.16690063 C16.48968417 436.5032659 16.33968939 435.83963117 16.18514931 435.15588629 C15.87087757 433.75305414 15.56947844 432.34728308 15.28027964 430.93906832 C14.86307005 428.9215517 14.40798059 426.91763037 13.9350853 424.91251755 C12.95739489 420.75198006 12.03213221 416.58061609 11.10888672 412.40771484 C10.75223159 410.80684839 10.39529996 409.20604351 10.03811932 407.60529423 C9.06747999 403.25155188 8.10072712 398.89695476 7.13464665 394.5421989 C6.0889199 389.83181724 5.03945067 385.12226929 3.99046326 380.41261292 C1.94174155 371.21162261 -0.10361984 362.00988865 -2.14761776 352.80784792 C-3.80794025 345.3331546 -5.46912986 337.85865457 -7.13101196 330.38430786 C-7.36792265 329.31879359 -7.60483334 328.25327933 -7.84892315 327.15547675 C-8.57220352 323.90255811 -9.2955012 320.64964332 -10.01879883 317.39672852 C-10.99753871 312.99489406 -11.97625079 308.59305343 -12.9549408 304.19120789 C-13.19933413 303.09201265 -13.44372747 301.99281742 -13.69552666 300.86031324 C-15.19698605 294.10698783 -16.69794506 287.3535514 -18.19856769 280.60004002 C-24.81101126 250.84155732 -31.44502928 221.08796943 -38.09697342 191.33829236 C-41.27557562 177.12128969 -44.44821635 162.90295613 -47.62023163 148.68448257 C-50.19246264 137.15578179 -52.7697242 125.62822727 -55.35304672 114.10200673 C-57.11991736 106.21636999 -58.88058402 98.32936421 -60.63638657 90.44125575 C-61.64891487 85.893317 -62.6642456 81.34605117 -63.68707466 76.80041695 C-64.62293676 72.641086 -65.55096289 68.4800871 -66.47280097 64.31762624 C-66.80739758 62.81335573 -67.14486861 61.30972107 -67.48551583 59.80680919 C-71.54691026 41.87121686 -71.54691026 41.87121686 -69.16015625 36.6484375 C-68.68449219 36.08898438 -68.20882812 35.52953125 -67.71875 34.953125 C-67.16703125 34.293125 -66.6153125 33.633125 -66.046875 32.953125 C-65.42296875 32.251875 -64.7990625 31.550625 -64.15625 30.828125 C-63.49109375 30.044375 -62.8259375 29.260625 -62.140625 28.453125 C-44.11706902 7.70658575 -27.3452635 -1.06532491 0 0 Z " fill="#959595" transform="translate(123.15625,9.171875)"/>
<path d="M0 0 C0.77214844 0.11085938 1.54429688 0.22171875 2.33984375 0.3359375 C2.90832031 0.43132813 3.47679687 0.52671875 4.0625 0.625 C5.87823399 4.70257505 6.75061075 8.68094549 7.5625 13.0625 C8.43338376 17.75296636 9.54725062 22.10896263 11.0625 26.625 C11.57597337 28.97192277 12.05314356 31.32698719 12.5 33.6875 C14.73845517 45.76024268 14.73845517 45.76024268 18.0625 57.5546875 C19.15587323 60.91168499 19.8434204 64.21912754 20.5 67.6875 C22.5455145 78.2400849 25.07164855 88.67080422 27.5625 99.125 C32.68841834 120.63866912 32.68841834 120.63866912 34.5625 130.125 C36.2675904 138.74813948 37.99405502 147.35477357 40.625 155.75 C41.66602022 159.09307009 42.4202814 162.35961464 43 165.8125 C43.98405748 171.61843914 45.5003088 177.23277573 47.05078125 182.91015625 C50.11063368 194.1453673 52.62770232 205.4787835 55 216.875 C57.48339244 229.83384366 57.48339244 229.83384366 61.0703125 242.4921875 C62.21427137 246.10421512 62.77075223 249.70155657 63.3125 253.4375 C65.01596831 264.40241999 67.72312451 275.10896586 70.38867188 285.87207031 C71.46244993 290.25899835 72.44873882 294.66391568 73.421875 299.07421875 C74.04471702 301.70405241 74.04471702 301.70405241 75.05078125 304.515625 C76.14769396 307.88683164 76.84071353 311.20482854 77.5 314.6875 C78.44817099 319.60898793 79.47092126 324.49639442 80.625 329.375 C81.77804632 334.25743049 82.731578 339.13827113 83.53515625 344.08984375 C84.02838481 346.71362574 84.02838481 346.71362574 85.03515625 349.515625 C86.12349629 352.80961236 86.7985635 356.02858585 87.4375 359.4375 C88.55175725 365.21602205 89.78344815 370.9574076 91.125 376.6875 C91.28726074 377.38915283 91.44952148 378.09080566 91.61669922 378.8137207 C92.33444457 381.84901844 93.12446895 384.81044612 94.11328125 387.76953125 C95.05246821 390.59482206 95.66768747 393.32089766 96.1875 396.25 C96.35507813 397.17039062 96.52265625 398.09078125 96.6953125 399.0390625 C97.0625 401.625 97.0625 401.625 97.0625 405.625 C100.3625 405.955 103.6625 406.285 107.0625 406.625 C106.7325 405.305 106.4025 403.985 106.0625 402.625 C105.06117615 398.17545528 104.89710839 394.1732693 105.0625 389.625 C106.99492285 392.97020258 107.6088853 396.07267482 108.1875 399.875 C108.43886719 401.49148438 108.43886719 401.49148438 108.6953125 403.140625 C108.81648437 403.96046875 108.93765625 404.7803125 109.0625 405.625 C109.7225 405.625 110.3825 405.625 111.0625 405.625 C111.3925 404.965 111.7225 404.305 112.0625 403.625 C112.0625 404.285 112.0625 404.945 112.0625 405.625 C112.60368973 405.47072037 113.14487946 405.31644073 113.70246887 405.15748596 C123.74469574 402.89169177 134.6270902 403.3374357 144.89453125 402.94140625 C146.40312705 402.88130793 147.91171245 402.82094796 149.42028809 402.76034546 C152.59774359 402.63300339 155.77524382 402.50688173 158.95278931 402.38180542 C167.23962078 402.0553005 175.52609518 401.71995235 183.8125 401.3828125 C184.62452692 401.34981741 185.43655384 401.31682232 186.27318764 401.28282738 C199.38740278 400.74866076 212.49588138 400.14049789 225.60253906 399.44415283 C242.60987982 398.54472616 259.62756544 397.92509179 276.64770508 397.32202148 C277.72209839 397.28286621 278.7964917 397.24371094 279.90344238 397.20336914 C281.9051421 397.13044319 283.90692893 397.05985017 285.90881348 396.9921875 C291.49874333 396.78645953 297.04050768 396.38646653 302.60838318 395.85136414 C307.79010333 395.37340987 312.98855271 395.24075171 318.1875 395.0625 C319.38858398 395.0200415 320.58966797 394.97758301 321.82714844 394.93383789 C333.90613492 394.54064584 345.97865212 394.52137861 358.0625 394.625 C356.30900466 396.8406798 355.39537104 397.56559833 352.56982422 398.06982422 C351.5954541 398.1060791 350.62108398 398.14233398 349.6171875 398.1796875 C348.53953125 398.23769531 347.461875 398.29570312 346.3515625 398.35546875 C344.09923626 398.45081895 341.84661676 398.53950629 339.59375 398.62109375 C332.18222508 399.0348012 327.19257755 400.43589583 321.0625 404.625 C320.21816406 405.14707031 319.37382812 405.66914063 318.50390625 406.20703125 C317.23257641 407.03960692 315.96175706 407.87296254 314.69140625 408.70703125 C313.0625 409.625 313.0625 409.625 311.0625 409.625 C311.0625 410.285 311.0625 410.945 311.0625 411.625 C310.340625 412.0375 309.61875 412.45 308.875 412.875 C305.28008004 415.11183908 303.28133306 416.99418226 301.0625 420.625 C301.32201881 423.1138279 301.90415864 425.21878811 302.7421875 427.57421875 C302.90074219 428.58935547 302.90074219 428.58935547 303.0625 429.625 C301.4956784 431.72211403 300.5016615 432.52562354 297.93019104 433.10751343 C297.08512497 433.15888458 296.2400589 433.21025574 295.36938477 433.26318359 C294.37027573 433.33018463 293.37116669 433.39718567 292.34178162 433.46621704 C291.21965775 433.52634979 290.09753387 433.58648254 288.94140625 433.6484375 C287.73223038 433.7237973 286.5230545 433.7991571 285.27723694 433.87680054 C281.6965431 434.09733278 278.11489516 434.29616093 274.53269196 434.49046326 C271.91850533 434.63284254 269.30455247 434.77906266 266.69061279 434.92590332 C253.22195037 435.67999406 239.75096459 436.38569826 226.27911377 437.08013916 C221.8745108 437.30830128 217.47013036 437.54061373 213.06574154 437.7728672 C208.78571625 437.99798249 204.50555283 438.2203769 200.2253437 438.44196701 C198.19968828 438.54716892 196.17407627 438.65321049 194.14851189 438.76015091 C174.03944243 439.81901155 174.03944243 439.81901155 165.0625 439.625 C165.35382813 440.63433594 165.64515625 441.64367187 165.9453125 442.68359375 C168.62375537 452.07694377 171.10072586 461.51589165 173.4375 471 C173.71223145 472.08724365 173.98696289 473.1744873 174.27001953 474.29467773 C174.64296143 475.83103882 174.64296143 475.83103882 175.0234375 477.3984375 C175.24821777 478.31028809 175.47299805 479.22213867 175.70458984 480.16162109 C176.07024417 482.6783006 175.86877541 484.23683593 175.0625 486.625 C170.37325908 488.14026141 167.11467262 486.85739351 162.75 485.0625 C162.05865967 484.79236084 161.36731934 484.52222168 160.6550293 484.24389648 C157.70805676 483.0919193 154.773199 481.91033988 151.83691406 480.73144531 C149.68686159 479.87313903 147.53126362 479.03005354 145.375 478.1875 C144.71653076 477.91671631 144.05806152 477.64593262 143.37963867 477.36694336 C139.51408095 475.85854256 137.00235269 475.19976847 133.0625 476.625 C131.07196183 477.67896665 129.12360118 478.81445026 127.2109375 480.00390625 C125.56351562 481.01420898 125.56351562 481.01420898 123.8828125 482.04492188 C122.73388996 482.75833403 121.58545726 483.47253564 120.4375 484.1875 C118.17902607 485.59239991 115.91560391 486.98793298 113.6484375 488.37890625 C112.6486084 489.00095947 111.6487793 489.6230127 110.61865234 490.26391602 C108.0625 491.625 108.0625 491.625 105.0625 491.625 C103.81314356 486.55808022 102.56821346 481.49009961 101.32714844 476.42114258 C100.90547429 474.7014524 100.4826494 472.98204393 100.05859375 471.26293945 C95.54263976 452.94882886 95.54263976 452.94882886 94.0625 443.625 C89.19178115 443.74497415 84.3211976 443.86929332 79.45068359 443.99731445 C77.80032213 444.0401206 76.14993158 444.08182248 74.49951172 444.12231445 C72.10114682 444.18136234 69.70291456 444.24420379 67.3046875 444.30859375 C66.51688904 444.32852386 65.72909058 444.34845398 64.91741943 444.36898804 C58.95342519 444.54147724 53.07331408 445.02570366 47.14501953 445.71899414 C43.09288149 445.59543378 40.60759651 444.59090586 37.0625 442.625 C35.63521004 439.62806129 35.63521004 439.62806129 34.85842896 435.96377563 C34.70843417 435.3001409 34.55843939 434.63650617 34.40389931 433.95276129 C34.08962757 432.54992914 33.78822844 431.14415808 33.49902964 429.73594332 C33.08182005 427.7184267 32.62673059 425.71450537 32.1538353 423.70939255 C31.17614489 419.54885506 30.25088221 415.37749109 29.32763672 411.20458984 C28.97098159 409.60372339 28.61404996 408.00291851 28.25686932 406.40216923 C27.28622999 402.04842688 26.31947712 397.69382976 25.35339665 393.3390739 C24.3076699 388.62869224 23.25820067 383.91914429 22.20921326 379.20948792 C20.16049155 370.00849761 18.11513016 360.80676365 16.07113224 351.60472292 C14.41080975 344.1300296 12.74962014 336.65552957 11.08773804 329.18118286 C10.85082735 328.11566859 10.61391666 327.05015433 10.36982685 325.95235175 C9.64654648 322.69943311 8.9232488 319.44651832 8.19995117 316.19360352 C7.22121129 311.79176906 6.24249921 307.38992843 5.2638092 302.98808289 C5.01941587 301.88888765 4.77502253 300.78969242 4.52322334 299.65718824 C3.02176395 292.90386283 1.52080494 286.1504264 0.02018231 279.39691502 C-6.59226126 249.63843232 -13.22627928 219.88484443 -19.87822342 190.13516736 C-23.05682562 175.91816469 -26.22946635 161.69983113 -29.40148163 147.48135757 C-31.97371264 135.95265679 -34.5509742 124.42510227 -37.13429672 112.89888173 C-38.90116736 105.01324499 -40.66183402 97.12623921 -42.41763657 89.23813075 C-43.43016487 84.690192 -44.4454956 80.14292617 -45.46832466 75.59729195 C-46.40418676 71.437961 -47.33221289 67.2769621 -48.25405097 63.11450124 C-48.58864758 61.61023073 -48.92611861 60.10659607 -49.26676583 58.60368419 C-53.32816026 40.66809186 -53.32816026 40.66809186 -50.94140625 35.4453125 C-50.46574219 34.88585938 -49.99007812 34.32640625 -49.5 33.75 C-48.94828125 33.09 -48.3965625 32.43 -47.828125 31.75 C-47.20421875 31.04875 -46.5803125 30.3475 -45.9375 29.625 C-45.27234375 28.84125 -44.6071875 28.0575 -43.921875 27.25 C-33.96370461 15.78735782 -17.09069886 -2.62933829 0 0 Z " fill="#616161" transform="translate(104.9375,10.375)"/>
<path d="M0 0 C0.2928186 1.32946655 0.2928186 1.32946655 0.59155273 2.68579102 C1.53825123 6.97846072 2.48715783 11.27063566 3.4375 15.5625 C3.61506836 16.36463928 3.79263672 17.16677856 3.97558594 17.9932251 C6.02728166 27.25122774 8.103016 36.50277367 10.25390625 45.73828125 C10.44174179 46.54594437 10.62957733 47.35360748 10.82310486 48.18574524 C11.71031033 51.9970163 12.60194216 55.80715412 13.50170898 59.61547852 C15.87625133 69.74191504 18.04238349 79.90811338 20.16709137 90.08932877 C24.59890285 111.32271139 29.3198248 132.4854687 34.10411072 153.64186096 C35.20872926 158.52993304 36.30992057 163.41877678 37.41113281 168.30761719 C37.63116344 169.28441311 37.85119408 170.26120903 38.0778923 171.26760483 C38.5200331 173.23047587 38.96216038 175.19334995 39.40427399 177.15622711 C40.05775562 180.05706445 40.71154754 182.95783171 41.36541748 185.85858154 C44.84958025 201.31737299 48.31391755 216.78044173 51.75 232.25 C51.99073242 233.33363831 52.23146484 234.41727661 52.47949219 235.53375244 C55.43015631 248.8255785 58.33650445 262.12616106 61.19274902 275.43856812 C66.00530595 297.84927612 71.02863738 320.21446882 76.01019287 342.58807373 C76.66807275 345.54302074 77.32511261 348.4981527 77.98150635 351.45343018 C79.54415932 358.4853625 81.11395044 365.51550831 82.70532227 372.54100513 C83.45866841 375.86928231 84.20805098 379.19844604 84.95703125 382.52770805 C85.31576584 384.1172552 85.67640803 385.70637318 86.0390625 387.29503059 C86.54128485 389.49567738 87.03694679 391.69770956 87.53125 393.90014648 C87.81548828 395.15343246 88.09972656 396.40671844 88.39257812 397.69798279 C88.9253171 400.59401493 89.27248103 403.0729917 89 406 C87.24682617 407.70996094 87.24682617 407.70996094 84.79296875 409.234375 C83.9006958 409.80414063 83.00842285 410.37390625 82.08911133 410.9609375 C81.13157959 411.55132812 80.17404785 412.14171875 79.1875 412.75 C77.25528966 413.990872 75.32557815 415.23564402 73.3984375 416.484375 C72.46612305 417.08572266 71.53380859 417.68707031 70.57324219 418.30664062 C60.43822129 424.75705749 60.43822129 424.75705749 55 435 C52.32027815 432.32027815 52.17331156 430.15966268 51.34960938 426.4597168 C51.19535807 425.77635883 51.04110676 425.09300087 50.88218117 424.38893509 C50.36229962 422.0772186 49.85309974 419.76327679 49.34375 417.44921875 C48.97164634 415.78424778 48.59889726 414.11942094 48.22555542 412.45472717 C47.19478389 407.84959027 46.17338691 403.24241592 45.15343475 398.63487244 C44.03809354 393.60403205 42.91423012 388.57509483 41.79150391 383.54589844 C39.59717454 373.70997371 37.41086183 363.87228388 35.2275219 354.03391457 C33.54970505 346.47403423 31.86927337 338.91474081 30.18652344 331.35595703 C29.95568243 330.31899878 29.72484142 329.28204052 29.48700523 328.21365929 C29.01783056 326.10612868 28.54865011 323.99859937 28.07946396 321.89107132 C24.79518712 307.13755004 21.51430486 292.38328467 18.24267578 277.62695312 C17.1202406 272.56507679 15.99767953 267.50322839 14.875 262.44140625 C14.7309213 261.79176297 14.5868426 261.14211968 14.43839788 260.47279024 C9.7551972 239.35773846 5.04763749 218.24818521 0.32851219 197.14113426 C-3.5398519 179.83915901 -7.40271657 162.53596121 -11.26241112 145.23204994 C-13.92113001 133.31377892 -16.58516381 121.3967187 -19.25555968 109.48105854 C-21.10168694 101.24119859 -22.94155647 92.99995661 -24.77670312 84.75764424 C-25.8511756 79.9327958 -26.92854177 75.10863801 -28.01327515 70.28608513 C-29.01816689 65.81822812 -30.01516179 61.34868357 -31.00603557 56.87769747 C-31.36782808 55.25182755 -31.7325061 53.6265965 -32.1003468 52.00208426 C-32.60161074 49.78635921 -33.09228706 47.56853639 -33.58047485 45.34989929 C-33.99440459 43.49827698 -33.99440459 43.49827698 -34.41669655 41.60924816 C-35.95512867 32.09004627 -35.95512867 32.09004627 -34.00390625 27.8203125 C-33.52824219 27.26085937 -33.05257812 26.70140625 -32.5625 26.125 C-32.01078125 25.465 -31.4590625 24.805 -30.890625 24.125 C-30.26671875 23.42375 -29.6428125 22.7225 -29 22 C-28.33484375 21.21625 -27.6696875 20.4325 -26.984375 19.625 C-7.8302524 -2.42291091 -7.8302524 -2.42291091 0 0 Z " fill="#878787" transform="translate(88,18)"/>
<path d="M0 0 C0 0.66 0 1.32 0 2 C-0.556875 2.30292969 -1.11375 2.60585938 -1.6875 2.91796875 C-6.36243438 5.48444455 -10.91241921 8.15461867 -15.37109375 11.08203125 C-17 12 -17 12 -19 12 C-19 12.66 -19 13.32 -19 14 C-19.721875 14.4125 -20.44375 14.825 -21.1875 15.25 C-24.78241996 17.48683908 -26.78116694 19.36918226 -29 23 C-28.74048119 25.4888279 -28.15834136 27.59378811 -27.3203125 29.94921875 C-27.21460938 30.62597656 -27.10890625 31.30273438 -27 32 C-28.5668216 34.09711403 -29.5608385 34.90062354 -32.13230896 35.48251343 C-32.97737503 35.53388458 -33.8224411 35.58525574 -34.69311523 35.63818359 C-36.19177879 35.73868515 -36.19177879 35.73868515 -37.72071838 35.84121704 C-38.84284225 35.90134979 -39.96496613 35.96148254 -41.12109375 36.0234375 C-42.33026962 36.0987973 -43.5394455 36.1741571 -44.78526306 36.25180054 C-48.3659569 36.47233278 -51.94760484 36.67116093 -55.52980804 36.86546326 C-58.14399467 37.00784254 -60.75794753 37.15406266 -63.37188721 37.30090332 C-76.84054963 38.05499406 -90.31153541 38.76069826 -103.78338623 39.45513916 C-108.1879892 39.68330128 -112.59236964 39.91561373 -116.99675846 40.1478672 C-121.27678375 40.37298249 -125.55694717 40.5953769 -129.8371563 40.81696701 C-131.86281172 40.92216892 -133.88842373 41.02821049 -135.91398811 41.13515091 C-156.02305757 42.19401155 -156.02305757 42.19401155 -165 42 C-164.70867187 43.00933594 -164.41734375 44.01867187 -164.1171875 45.05859375 C-161.43874463 54.45194377 -158.96177414 63.89089165 -156.625 73.375 C-156.21290283 75.00586548 -156.21290283 75.00586548 -155.79248047 76.66967773 C-155.54385254 77.69391846 -155.29522461 78.71815918 -155.0390625 79.7734375 C-154.81428223 80.68528809 -154.58950195 81.59713867 -154.35791016 82.53662109 C-153.99225583 85.0533006 -154.19372459 86.61183593 -155 89 C-159.68924092 90.51526141 -162.94782738 89.23239351 -167.3125 87.4375 C-168.3495105 87.03229126 -168.3495105 87.03229126 -169.4074707 86.61889648 C-172.35444324 85.4669193 -175.289301 84.28533988 -178.22558594 83.10644531 C-180.37563841 82.24813903 -182.53123638 81.40505354 -184.6875 80.5625 C-185.67520386 80.15632446 -185.67520386 80.15632446 -186.68286133 79.74194336 C-190.54841905 78.23354256 -193.06014731 77.57476847 -197 79 C-198.99053817 80.05396665 -200.93889882 81.18945026 -202.8515625 82.37890625 C-204.49898437 83.38920898 -204.49898437 83.38920898 -206.1796875 84.41992188 C-207.32861004 85.13333403 -208.47704274 85.84753564 -209.625 86.5625 C-211.88347393 87.96739991 -214.14689609 89.36293298 -216.4140625 90.75390625 C-217.91380615 91.68698608 -217.91380615 91.68698608 -219.44384766 92.63891602 C-222 94 -222 94 -225 94 C-229.5680814 75.84820828 -234.05765302 57.7042302 -237.5625 39.3125 C-237.69005676 38.64515839 -237.81761353 37.97781677 -237.94903564 37.29025269 C-240 26.49932631 -240 26.49932631 -240 24 C-241.98 24 -243.96 24 -246 24 C-244.49049486 19.47148457 -240.91015158 17.36800128 -237 15 C-235.34630643 14.30177383 -233.68272986 13.62501395 -232 13 C-231.34 12.34 -230.68 11.68 -230 11 C-226.77851971 10.16030879 -223.66582392 9.85053979 -220.34692383 9.73461914 C-219.44914719 9.70102798 -218.55137054 9.66743683 -217.62638855 9.63282776 C-216.66300064 9.60059616 -215.69961273 9.56836456 -214.70703125 9.53515625 C-212.62580885 9.45781552 -210.54459159 9.38033628 -208.46337891 9.30273438 C-207.37776672 9.26365967 -206.29215454 9.22458496 -205.17364502 9.18432617 C-199.53584799 8.97998175 -193.898751 8.75948372 -188.26171875 8.53515625 C-187.22980911 8.49648941 -186.19789948 8.45782257 -185.13471985 8.41798401 C-176.74432443 8.08506483 -168.3914804 7.45118663 -160.02609253 6.73451233 C-143.0707037 5.29204567 -126.00681883 5.00149513 -109.00648499 4.375 C-97.64851264 3.95477703 -86.29286736 3.48504439 -74.9375 3 C-73.50328705 2.93912201 -73.50328705 2.93912201 -72.0401001 2.87701416 C-61.3846479 2.42387381 -50.73070243 1.94618274 -40.078125 1.4296875 C-39.11270279 1.38297913 -38.14728058 1.33627075 -37.15260315 1.28814697 C-32.57474617 1.06599087 -27.99709005 0.84051225 -23.41967773 0.609375 C-15.60427991 0.22056679 -7.82819691 -0.11171739 0 0 Z " fill="#9A9897" transform="translate(435,408)"/>
<path d="M0 0 C0.33 0 0.66 0 1 0 C1.33319512 1.64397908 1.33319512 1.64397908 1.67312145 3.32116985 C7.28638227 30.99228122 13.07036416 58.62291987 18.99838853 86.22819924 C20.11521506 91.43098084 21.22976054 96.63425121 22.34465027 101.83744812 C24.21640453 110.571376 26.08971467 119.30496892 27.96411133 128.03833008 C29.85911923 136.86777159 31.75272697 145.69751171 33.64477539 154.52758789 C46.92520842 216.58008147 46.92520842 216.58008147 60.41694641 278.58686829 C63.76613583 293.84397334 66.98266962 309.12671549 70.15818024 324.42079544 C72.11667799 333.85162284 74.12468154 343.2713068 76.15234375 352.6875 C76.42426544 353.95110855 76.69618713 355.2147171 76.97634888 356.51661682 C78.31894467 362.7527171 79.66501174 368.98804351 81.015625 375.22241211 C81.50920524 377.51153644 82.00269886 379.80067946 82.49609375 382.08984375 C82.71966049 383.11621948 82.94322723 384.14259521 83.17356873 385.20007324 C84.49448533 391.34314559 85.58034171 397.47257592 86.45521545 403.69606018 C86.63499435 404.45636032 86.81477325 405.21666046 87 406 C87.66 406.33 88.32 406.66 89 407 C88.37351562 407.43570312 87.74703125 407.87140625 87.1015625 408.3203125 C80.72572138 412.85062788 80.72572138 412.85062788 78 420 C75.32027815 417.32027815 75.17331156 415.15966268 74.34960938 411.4597168 C74.19535807 410.77635883 74.04110676 410.09300087 73.88218117 409.38893509 C73.36229962 407.0772186 72.85309974 404.76327679 72.34375 402.44921875 C71.97164634 400.78424778 71.59889726 399.11942094 71.22555542 397.45472717 C70.19478389 392.84959027 69.17338691 388.24241592 68.15343475 383.63487244 C67.03809354 378.60403205 65.91423012 373.57509483 64.79150391 368.54589844 C62.59717454 358.70997371 60.41086183 348.87228388 58.2275219 339.03391457 C56.54970505 331.47403423 54.86927337 323.91474081 53.18652344 316.35595703 C52.95568243 315.31899878 52.72484142 314.28204052 52.48700523 313.21365929 C52.01783056 311.10612868 51.54865011 308.99859937 51.07946396 306.89107132 C47.79518712 292.13755004 44.51430486 277.38328467 41.24267578 262.62695312 C40.1202406 257.56507679 38.99767953 252.50322839 37.875 247.44140625 C37.7309213 246.79176297 37.5868426 246.14211968 37.43839788 245.47279024 C32.7551972 224.35773846 28.04763749 203.24818521 23.32851219 182.14113426 C19.4601481 164.83915901 15.59728343 147.53596121 11.73758888 130.23204994 C9.07886999 118.31377892 6.41483619 106.3967187 3.74444032 94.48105854 C1.89831306 86.24119859 0.05844353 77.99995661 -1.77670312 69.75764424 C-2.8511756 64.9327958 -3.92854177 60.10863801 -5.01327515 55.28608513 C-6.01816689 50.81822812 -7.01516179 46.34868357 -8.00603557 41.87769747 C-8.36782808 40.25182755 -8.7325061 38.6265965 -9.1003468 37.00208426 C-9.60161074 34.78635921 -10.09228706 32.56853639 -10.58047485 30.34989929 C-10.85642801 29.11548442 -11.13238117 27.88106955 -11.41669655 26.60924816 C-12.96828063 17.00866726 -12.96828063 17.00866726 -10.8984375 12.71484375 C-10.39570312 12.12832031 -9.89296875 11.54179688 -9.375 10.9375 C-8.83230469 10.28652344 -8.28960937 9.63554688 -7.73046875 8.96484375 C-7.15941406 8.31644531 -6.58835937 7.66804688 -6 7 C-5.43925781 6.32066406 -4.87851562 5.64132813 -4.30078125 4.94140625 C-1.45369815 1.5152554 -1.45369815 1.5152554 0 0 Z " fill="#777777" transform="translate(65,33)"/>
<path d="M0 0 C0.15557373 0.60247559 0.31114746 1.20495117 0.47143555 1.82568359 C3.06757028 11.8653415 5.66418911 21.90004394 8.5 31.875 C10.59944435 39.33969103 12.51843309 46.84642732 14.375 54.375 C14.65021484 55.46409668 14.92542969 56.55319336 15.20898438 57.67529297 C15.45712891 58.69768066 15.70527344 59.72006836 15.9609375 60.7734375 C16.18571777 61.68528809 16.41049805 62.59713867 16.64208984 63.53662109 C17.00774417 66.0533006 16.80627541 67.61183593 16 70 C11.31075908 71.51526141 8.05217262 70.23239351 3.6875 68.4375 C2.6504895 68.03229126 2.6504895 68.03229126 1.5925293 67.61889648 C-1.35444324 66.4669193 -4.289301 65.28533988 -7.22558594 64.10644531 C-9.37563841 63.24813903 -11.53123638 62.40505354 -13.6875 61.5625 C-14.67520386 61.15632446 -14.67520386 61.15632446 -15.68286133 60.74194336 C-19.54841905 59.23354256 -22.06014731 58.57476847 -26 60 C-27.99053817 61.05396665 -29.93889882 62.18945026 -31.8515625 63.37890625 C-33.49898437 64.38920898 -33.49898437 64.38920898 -35.1796875 65.41992188 C-36.32861004 66.13333403 -37.47704274 66.84753564 -38.625 67.5625 C-40.88347393 68.96739991 -43.14689609 70.36293298 -45.4140625 71.75390625 C-46.91380615 72.68698608 -46.91380615 72.68698608 -48.44384766 73.63891602 C-51 75 -51 75 -54 75 C-55.24629332 69.89571264 -56.49136484 64.7911293 -57.73535156 59.6862793 C-58.15787512 57.95312638 -58.58072057 56.22005191 -59.00390625 54.48706055 C-59.61545046 51.98246968 -60.22579991 49.4775901 -60.8359375 46.97265625 C-61.02247894 46.20977798 -61.20902039 45.44689972 -61.4012146 44.66090393 C-62.32975269 40.84388364 -63.23731042 37.02246561 -64.11157227 33.19262695 C-64.27327408 32.48531937 -64.43497589 31.77801178 -64.60157776 31.04927063 C-65.24504364 27.73962675 -65.40060644 24.49376394 -65.5625 21.125 C-65.79287339 15.97033565 -65.79287339 15.97033565 -67 11 C-66.67 10.38125 -66.34 9.7625 -66 9.125 C-64.70446208 6.37198192 -65.31189719 4.89576598 -66 2 C-59.4938889 1.7096101 -52.98752188 1.42554442 -46.48095703 1.14550781 C-44.275818 1.04989724 -42.07073715 0.95293328 -39.86572266 0.85449219 C-26.56774608 0.2618584 -13.31178714 -0.1532292 0 0 Z " fill="#DDD45A" transform="translate(264,427)"/>
<path d="M0 0 C1.93242285 3.34520258 2.5463853 6.44767482 3.125 10.25 C3.29257813 11.32765625 3.46015625 12.4053125 3.6328125 13.515625 C3.75398438 14.33546875 3.87515625 15.1553125 4 16 C4.66 16 5.32 16 6 16 C6.33 15.34 6.66 14.68 7 14 C7 14.66 7 15.32 7 16 C7.81178459 15.76858055 7.81178459 15.76858055 8.63996887 15.53248596 C18.68219574 13.26669177 29.5645902 13.7124357 39.83203125 13.31640625 C41.34062705 13.25630793 42.84921245 13.19594796 44.35778809 13.13534546 C47.53524359 13.00800339 50.71274382 12.88188173 53.89028931 12.75680542 C62.17712078 12.4303005 70.46359518 12.09495235 78.75 11.7578125 C79.56202692 11.72481741 80.37405384 11.69182232 81.21068764 11.65782738 C94.32490278 11.12366076 107.43338138 10.51549789 120.54003906 9.81915283 C137.54737982 8.91972616 154.56506544 8.30009179 171.58520508 7.69702148 C172.65959839 7.65786621 173.7339917 7.61871094 174.84094238 7.57836914 C176.8426421 7.50544319 178.84442893 7.43485017 180.84631348 7.3671875 C186.43624333 7.16145953 191.97800768 6.76146653 197.54588318 6.22636414 C202.72760333 5.74840987 207.92605271 5.61575171 213.125 5.4375 C214.92662598 5.37381226 214.92662598 5.37381226 216.76464844 5.30883789 C228.84363492 4.91564584 240.91615212 4.89637861 253 5 C251.35288944 7.00462809 250.44232434 7.91405406 247.85644531 8.41650391 C246.60492676 8.44623291 246.60492676 8.44623291 245.328125 8.4765625 C244.37180176 8.5067749 243.41547852 8.5369873 242.43017578 8.56811523 C240.85598877 8.59627319 240.85598877 8.59627319 239.25 8.625 C238.13222168 8.65730713 237.01444336 8.68961426 235.86279297 8.72290039 C233.45849375 8.79166567 231.05401498 8.85436869 228.64941406 8.91162109 C222.80686061 9.05311189 216.96614685 9.24761752 211.125 9.4375 C209.87251465 9.47705811 208.6200293 9.51661621 207.32958984 9.55737305 C178.54097756 10.47362045 149.75248034 11.53848627 120.99612427 13.19210815 C110.60268137 13.78895144 100.21902959 14.21462427 89.8125 14.5 C79.88617327 14.77548891 70.0448893 15.3278081 60.15454102 16.19921875 C52.33896877 16.84297245 44.53102483 17.20832347 36.6953125 17.50390625 C35.59716217 17.54563461 34.49901184 17.58736298 33.36758423 17.63035583 C27.78857572 17.83913354 22.2093892 18.0341758 16.62939453 18.21459961 C14.54979799 18.28871205 12.47020786 18.36300454 10.390625 18.4375 C9.43229767 18.46457535 8.47397034 18.4916507 7.48660278 18.51954651 C-0.98139964 18.73652404 -0.98139964 18.73652404 -8 23 C-9.72702198 23.71687705 -11.45424132 24.43329445 -13.18359375 25.14453125 C-16.50601035 26.70928229 -19.34532252 28.69064505 -21 32 C-19.02 32 -17.04 32 -15 32 C-14.87882812 32.556875 -14.75765625 33.11375 -14.6328125 33.6875 C-13.78164098 37.56360416 -12.89941726 41.41575253 -11.875 45.25 C-11.13743914 48.41097511 -10.92289162 50.80551001 -11 54 C-12.01723145 54.02505615 -13.03446289 54.0501123 -14.08251953 54.07592773 C-17.92570563 54.17146168 -21.76877077 54.27130026 -25.61181641 54.37231445 C-27.26217787 54.4151206 -28.91256842 54.45682248 -30.56298828 54.49731445 C-32.96135412 54.55636237 -35.35959117 54.61895191 -37.7578125 54.68359375 C-38.54488586 54.70424896 -39.33195923 54.72490417 -40.1428833 54.7461853 C-46.13116308 54.92385715 -52.0552318 55.37224747 -58.01513672 55.99633789 C-61.38369109 56.00047075 -63.87912078 55.2198316 -67 54 C-66.79062189 49.7496244 -66.48457455 47.55887598 -63.65625 44.296875 C-62.62220386 43.42603738 -61.56858563 42.57809078 -60.5 41.75 C-59.64245117 41.05837769 -59.64245117 41.05837769 -58.76757812 40.3527832 C-43.50707042 28.32312205 -26.07484085 16.42270723 -6 16.875 C-4.83791016 16.88853516 -4.83791016 16.88853516 -3.65234375 16.90234375 C-1.76809157 16.92560612 0.11599832 16.9614636 2 17 C1.855625 16.443125 1.71125 15.88625 1.5625 15.3125 C0.28453328 10.05863683 -0.19646963 5.40291471 0 0 Z " fill="#333333" transform="translate(210,400)"/>
<path d="M0 0 C0.89203125 0.01804687 1.7840625 0.03609375 2.703125 0.0546875 C3.71632813 0.08949219 3.71632813 0.08949219 4.75 0.125 C3.76 0.62 3.76 0.62 2.75 1.125 C2.90146484 1.86661377 3.05292969 2.60822754 3.20898438 3.37231445 C3.8923337 6.72677117 4.57121815 10.0821162 5.25 13.4375 C5.48847656 14.60474609 5.72695312 15.77199219 5.97265625 16.97460938 C6.19824219 18.09287109 6.42382812 19.21113281 6.65625 20.36328125 C6.86572266 21.39493408 7.07519531 22.42658691 7.29101562 23.48950195 C7.75 26.125 7.75 26.125 7.75 29.125 C8.41 29.125 9.07 29.125 9.75 29.125 C11.3881115 34.67273761 12.82412346 40.15026909 13.6875 45.875 C14.60950141 51.82190911 16.13892237 57.51699344 17.7421875 63.3125 C19.0017674 68.07742239 19.99430054 72.87540401 20.94140625 77.7109375 C21.55960749 80.32112052 22.26965722 82.66951596 23.1628418 85.18212891 C24.87065325 90.25875413 25.93025244 95.37426168 26.953125 100.625 C28.9500491 110.52376269 31.15841845 120.36206734 33.484375 130.1875 C33.64722488 130.8768161 33.81007477 131.5661322 33.9778595 132.27633667 C35.31961651 137.95439015 36.66819579 143.63081621 38.01934814 149.30664062 C39.0390778 153.5904844 40.05547379 157.8750897 41.06708527 162.16085815 C41.53408919 164.13349249 42.00595978 166.1049727 42.47796631 168.07641602 C43.90005522 174.09949942 45.08608215 179.97426242 45.75 186.125 C46.36709587 188.14084651 47.03293018 190.14251285 47.75 192.125 C49.11899454 196.47357088 49.91972139 200.53969319 50.41235352 205.06591797 C50.7572972 207.16950077 51.34442261 208.95078731 52.08984375 210.9453125 C54.34211946 217.51540501 55.53865016 224.32282878 56.875 231.125 C57.3938722 233.75096099 57.9183009 236.37564272 58.4453125 239 C58.67234863 240.15242187 58.89938477 241.30484375 59.13330078 242.4921875 C59.4850767 245.0358124 59.4850767 245.0358124 60.75 246.125 C60.82179964 247.64428038 60.83392007 249.16667482 60.8125 250.6875 C60.80347656 251.51378906 60.79445313 252.34007812 60.78515625 253.19140625 C60.77355469 253.82949219 60.76195312 254.46757812 60.75 255.125 C61.41 255.125 62.07 255.125 62.75 255.125 C65.95006062 267.50840092 69.01013758 279.87434985 71.41650391 292.43847656 C72.41074358 297.5850055 73.6402157 302.59275949 75.1015625 307.62890625 C76.08309782 311.40722594 76.62170589 315.23972121 77.22265625 319.09375 C77.92681528 323.14136041 78.9345146 327.082501 79.9609375 331.05859375 C81.82518186 338.30330576 83.55257585 345.53075753 84.625 352.9375 C85.35960096 357.60009123 86.58184398 361.96685231 88.0625 366.4375 C90.29238903 373.23039491 92.01438594 380.08342539 93.5625 387.0625 C93.78139893 388.0213208 94.00029785 388.9801416 94.22583008 389.96801758 C95.48801955 395.81739907 95.96476722 401.14219874 95.75 407.125 C94.43 407.125 93.11 407.125 91.75 407.125 C91.50765625 405.92746094 91.2653125 404.72992188 91.015625 403.49609375 C88.91839037 393.26137746 86.51876349 383.20054182 83.75 373.125 C81.95921966 366.34974351 80.38865219 359.61717648 79.27734375 352.6953125 C78.79580051 350.05821209 78.79580051 350.05821209 77.78125 347.3515625 C76.516107 343.39319842 75.92405662 339.47625428 75.3125 335.375 C74.39062139 329.50962865 73.28336414 323.91255098 71.43359375 318.2578125 C69.91647737 313.52440938 69.0392558 308.62878167 68.1015625 303.75390625 C66.35882483 294.74976162 64.16575133 285.97370713 61.75 277.125 C59.34324662 268.20314991 57.42402036 259.49225169 56.24609375 250.30859375 C55.67283007 246.62977563 54.7282706 243.21871954 53.53125 239.69921875 C51.46776012 232.90001959 50.25951589 225.82670253 48.8125 218.875 C47.21780312 211.26839145 45.54022056 203.68827127 43.75 196.125 C43.34103764 194.37372318 42.9321937 192.6224187 42.5234375 190.87109375 C42.07840763 188.97649609 41.63309404 187.08196505 41.1875 185.1875 C40.97746338 184.28660645 40.76742676 183.38571289 40.55102539 182.45751953 C39.47801169 177.92192585 38.23430387 173.54592231 36.75 169.125 C36.40186365 167.38173945 36.08853693 165.63112069 35.8125 163.875 C35.03926257 159.38169902 33.94907003 155.13520302 32.53125 150.8046875 C30.52848359 143.93519873 29.30703277 136.87762564 27.99951172 129.85009766 C25.99898545 119.11858027 23.73587155 108.62703095 20.75 98.125 C18.63824136 89.99081857 16.66036625 81.83809615 15.06640625 73.5859375 C13.8041368 67.05876178 12.43611225 60.70286056 10.43359375 54.36328125 C8.96749417 49.56285234 8.03938946 44.64516631 7.1015625 39.71875 C5.65125736 32.17092541 3.85974082 24.87640882 1.66796875 17.51171875 C0.29423181 12.44350628 -0.52673833 7.32106412 -1.25 2.125 C-3.89 2.125 -6.53 2.125 -9.25 2.125 C-6.03817851 0.21891902 -3.71117397 -0.09766247 0 0 Z " fill="#7E7E7E" transform="translate(110.25,8.875)"/>
<path d="M0 0 C4.875 0.875 4.875 0.875 6 2 C6.50762273 5.61796564 6.90205178 9.24395783 7.3046875 12.875 C7.83434756 16.64046728 8.95748743 20.02934839 10.21533203 23.60742188 C11.62653777 27.91041385 12.5348064 32.32963714 13.5 36.75 C13.93333555 38.70057821 14.36692802 40.65109937 14.80078125 42.6015625 C15.00654785 43.53258789 15.21231445 44.46361328 15.42431641 45.42285156 C16.14844651 48.66454682 16.91692356 51.89405514 17.6875 55.125 C18.6044669 59.06949448 19.36122206 63.00114623 20 67 C21.35961387 75.48087012 23.23486997 83.76161344 25.875 91.9375 C28.12425019 98.98803426 29.69133932 106.16712823 31.24951172 113.39819336 C32.2100175 117.79836926 33.28007381 121.82936353 35 126 C35.54281525 128.91511892 35.94011873 131.83174642 36.33984375 134.76953125 C36.87046735 137.36613312 37.50514832 139.42987033 38.47265625 141.86328125 C40.08559489 145.98218415 40.84257726 150.01527543 41.5 154.375 C42.39914705 159.90927104 43.51777809 165.14478323 45.27709961 170.47924805 C46.02022258 173.07051611 46.45184016 175.57596993 46.84375 178.2421875 C48.12911529 186.19768697 50.04443161 193.98588355 51.9375 201.8125 C52.74014725 205.15580384 53.53998843 208.49977727 54.33984375 211.84375 C54.55031342 212.72198929 54.76078308 213.60022858 54.97763062 214.50508118 C56.68234768 221.63206674 58.34827821 228.76771727 60.00390625 235.90625 C60.25381821 236.98210861 60.50373016 238.05796722 60.76121521 239.16642761 C61.75514949 243.44554953 62.74904778 247.72466607 63.73654175 252.00527954 C64.42533808 254.98994692 65.11849265 257.97357198 65.8125 260.95703125 C66.01939957 261.859375 66.22629913 262.76171875 66.43946838 263.69140625 C67.06294617 267.66693864 67.06294617 267.66693864 69 271 C69.43090019 273.33120101 69.81758901 275.65892313 70.1875 278 C71.45169649 285.61082688 73.15634034 293.07263263 75 300.5625 C77.03473126 308.8379009 78.85531036 317.08484276 80.3515625 325.47265625 C82.00055069 335.12977633 82.00055069 335.12977633 85.02734375 344.3984375 C86.2724374 347.72868797 86.60190178 350.90793277 87 354.4375 C87.54348356 359.24635896 88.40659908 363.43707919 90 368 C90.125 370.875 90.125 370.875 90 373 C90.66 373 91.32 373 92 373 C93.88858258 380.10107049 95.44539407 387.12736367 96.47265625 394.40625 C96.98658737 396.93402976 97.83733551 398.7225173 99 401 C99.125 404.25 99.125 404.25 99 407 C97.33388095 407.042721 95.66617115 407.04063832 94 407 C92.18798899 405.18798899 92.45618959 402.31544556 92.15234375 399.86328125 C91.09892788 392.17363772 89.42935064 384.72228359 87.5625 377.1875 C87.26279297 375.94291016 86.96308594 374.69832031 86.65429688 373.41601562 C85.3964412 368.26726582 84.12714286 363.17927385 82.37109375 358.17578125 C80.86078657 353.84161625 80.14437422 349.53309203 79.5 345 C78.64491671 339.43427822 77.65790896 334.21734907 75.6875 328.921875 C73.82254557 323.70847965 73.02292272 318.20345387 72.1875 312.75 C71.11031132 306.05604179 69.49451751 299.5156593 67.8918457 292.93286133 C66.31893424 286.44090005 64.95294696 279.94282418 63.69140625 273.3828125 C62.80380271 269.04007429 61.70480712 264.76705408 60.55078125 260.48828125 C60 258 60 258 60 254 C59.34 254 58.68 254 58 254 C57.95101562 253.43152344 57.90203125 252.86304688 57.8515625 252.27734375 C57.77679688 251.50519531 57.70203125 250.73304688 57.625 249.9375 C57.55539063 249.18339844 57.48578125 248.42929687 57.4140625 247.65234375 C57.03796145 244.88147404 57.03796145 244.88147404 56.07983398 241.79858398 C55.02096935 238.07376489 54.14099852 234.35167676 53.30859375 230.5703125 C53.00073418 229.18487736 52.69278909 227.79946121 52.38476562 226.4140625 C51.90727554 224.25484791 51.43098977 222.09537863 50.95629883 219.93554688 C50.49355354 217.83392188 50.02635158 215.7333266 49.55859375 213.6328125 C49.28329834 212.38387207 49.00800293 211.13493164 48.72436523 209.84814453 C48.28824625 207.11791242 48.28824625 207.11791242 47 206 C46.64753173 204.34132579 46.34353264 202.67226035 46.0625 201 C45.21365325 192.40936919 45.21365325 192.40936919 42 185 C41.57687058 182.71178628 41.19887351 180.42687715 40.8359375 178.12890625 C38.73511056 165.59355389 35.60638475 153.28596017 32.625 140.9375 C31.48785483 136.21847693 30.35461298 131.49854936 29.2265625 126.77734375 C28.95127213 125.62618073 28.67598175 124.4750177 28.39234924 123.28897095 C26.31483066 114.52023322 24.42407684 105.72127765 22.67678833 96.88084412 C21.27290797 89.88416043 19.30272362 83.22989654 17.0546875 76.46484375 C15.79000191 72.31011737 15.13695153 68.21625885 14.52734375 63.92578125 C13.94054272 60.6701222 13.01892769 57.64635914 12 54.5 C9.20911244 45.83683601 8.04015004 37.01463368 7 28 C6.34 28 5.68 28 5 28 C4.15808127 24.27271829 3.3279832 20.54289997 2.5 16.8125 C2.26152344 15.75740234 2.02304688 14.70230469 1.77734375 13.61523438 C1.55175781 12.59365234 1.32617188 11.57207031 1.09375 10.51953125 C0.77954102 9.11344604 0.77954102 9.11344604 0.45898438 7.67895508 C0.01032912 5.06028801 -0.08407959 2.65060917 0 0 Z " fill="#A9A9A9" transform="translate(113,10)"/>
<path d="M0 0 C2.0625 0.4375 2.0625 0.4375 4 1 C4.41713515 2.43146378 4.8080497 3.87058886 5.1875 5.3125 C5.40792969 6.11300781 5.62835938 6.91351563 5.85546875 7.73828125 C6 10 6 10 4.80249023 11.60147095 C2.52636376 13.36748828 1.16909843 13.46413938 -1.6953125 13.63818359 C-3.1944519 13.73868515 -3.1944519 13.73868515 -4.72387695 13.84121704 C-6.40743286 13.93141617 -6.40743286 13.93141617 -8.125 14.0234375 C-9.33438232 14.0987973 -10.54376465 14.1741571 -11.78979492 14.25180054 C-15.36964436 14.47227595 -18.95044671 14.67110408 -22.53179932 14.86546326 C-25.1429451 15.00779165 -27.75385253 15.15402347 -30.36474609 15.30090332 C-42.73114561 15.99433865 -55.0993915 16.64884773 -67.46875 17.28710938 C-72.95092533 17.5699934 -78.43280587 17.85821162 -83.91462708 18.1478672 C-88.19039487 18.3731543 -92.46631236 18.59548997 -96.74227905 18.81696701 C-98.76432176 18.92207635 -100.78631646 19.02811406 -102.80825806 19.13515091 C-112.88291472 19.66701839 -122.90705255 20.13807186 -133 20 C-133.66 16.04 -134.32 12.08 -135 8 C-122.75037445 7.34087389 -110.50040941 6.68848243 -98.24999142 6.04424286 C-92.55914458 5.74476317 -86.86843051 5.44312824 -81.17797852 5.13623047 C-75.66687063 4.83909025 -70.15546881 4.54805156 -64.64383125 4.26091003 C-62.56103998 4.15139106 -60.47835519 4.03982332 -58.39579582 3.92597961 C-47.31431951 3.32164264 -36.25791392 2.89836116 -25.15844727 2.86914062 C-24.16867606 2.86487816 -23.17890486 2.86061569 -22.15914059 2.85622406 C-21.24916097 2.85875435 -20.33918135 2.86128464 -19.40162659 2.8638916 C-18.59787377 2.86561623 -17.79412096 2.86734085 -16.966012 2.86911774 C-15 3 -15 3 -13 4 C-13 3.34 -13 2.68 -13 2 C-11.71802734 1.90912109 -11.71802734 1.90912109 -10.41015625 1.81640625 C-9.30542969 1.73261719 -8.20070313 1.64882813 -7.0625 1.5625 C-5.96035156 1.48128906 -4.85820312 1.40007812 -3.72265625 1.31640625 C-1.08890097 1.29581916 -1.08890097 1.29581916 0 0 Z " fill="#7A7A7A" transform="translate(402,430)"/>
<path d="M0 0 C0 0.66 0 1.32 0 2 C-0.556875 2.30292969 -1.11375 2.60585938 -1.6875 2.91796875 C-6.36243438 5.48444455 -10.91241921 8.15461867 -15.37109375 11.08203125 C-17 12 -17 12 -19 12 C-19 12.66 -19 13.32 -19 14 C-20.66666667 15 -22.33333333 16 -24 17 C-24.825 17.845625 -25.65 18.69125 -26.5 19.5625 C-29.85156703 22.83027786 -32.43558399 23.90185596 -37.11328125 24.1953125 C-38.16902344 24.17210937 -39.22476563 24.14890625 -40.3125 24.125 C-41.38113281 24.10695313 -42.44976562 24.08890625 -43.55078125 24.0703125 C-44.35902344 24.04710937 -45.16726563 24.02390625 -46 24 C-46 24.66 -46 25.32 -46 26 C-46.83994255 25.98428955 -46.83994255 25.98428955 -47.69685364 25.96826172 C-61.52776363 25.750228 -75.26864189 26.10722719 -89.07421875 26.875 C-89.86598637 26.91894897 -90.65775398 26.96289795 -91.47351456 27.00817871 C-97.21207019 27.32925171 -102.9498248 27.66361661 -108.6875 28 C-115.23264089 28.38282053 -121.778047 28.76019469 -128.32421875 29.125 C-129.10428158 29.16862671 -129.88434441 29.21225342 -130.6880455 29.25720215 C-143.13368353 29.9436546 -155.53381423 30.25038437 -168 30 C-168.66 28.02 -169.32 26.04 -170 24 C-168.80794449 23.94180084 -167.61588898 23.88360168 -166.38771057 23.82363892 C-154.99287713 23.26705888 -143.59814688 22.7084049 -132.20350742 22.1478672 C-126.34950558 21.85995351 -120.49547316 21.57269877 -114.64135742 21.28710938 C-88.41773172 20.00732448 -62.20059037 18.6940971 -36 17 C-36 16.01 -36 15.02 -36 14 C-36.95438965 14.06058594 -37.9087793 14.12117188 -38.89208984 14.18359375 C-58.61876785 15.42194351 -78.22491683 16.34571824 -98 16 C-98 15.67 -98 15.34 -98 15 C-93.96411051 14.75226258 -89.92814981 14.50571343 -85.89215088 14.25976562 C-83.68048742 14.12457134 -81.46890539 13.98809555 -79.25732422 13.8515625 C-71.21366832 13.35801128 -63.16964771 12.89851294 -55.12109375 12.4921875 C-52.73146923 12.36816652 -50.34188049 12.24347715 -47.95230103 12.11859131 C-46.40312879 12.03965078 -44.85378549 11.96399748 -43.30429077 11.8916626 C-41.13205093 11.79005137 -38.96063486 11.67738312 -36.7890625 11.5625 C-35.54850098 11.50191406 -34.30793945 11.44132812 -33.02978516 11.37890625 C-29.82714814 11.20771458 -29.82714814 11.20771458 -27 9 C-26.01 9 -25.02 9 -24 9 C-24 8.34 -24 7.68 -24 7 C-24.56649639 7.15860473 -25.13299278 7.31720945 -25.71665573 7.48062038 C-28.03436112 8.00781593 -30.16082527 8.20123309 -32.5335083 8.31007385 C-33.43829422 8.35351929 -34.34308014 8.39696472 -35.27528381 8.44172668 C-36.26112961 8.4848851 -37.2469754 8.52804352 -38.26269531 8.57250977 C-39.30737473 8.62142365 -40.35205414 8.67033752 -41.4283905 8.72073364 C-44.89478952 8.88182975 -48.36142859 9.03685128 -51.828125 9.19140625 C-54.25356954 9.30187735 -56.6790048 9.41255254 -59.10443115 9.52342224 C-64.20540584 9.75558771 -69.30650878 9.98464724 -74.40771484 10.21166992 C-80.87821391 10.49995899 -87.34829062 10.79671978 -93.8182869 11.09605503 C-98.84085063 11.32727861 -103.86363728 11.55334624 -108.8864975 11.77802849 C-111.26707209 11.88519831 -113.64757412 11.99399494 -116.02799225 12.10458565 C-131.69628129 12.82931338 -147.31487924 13.14779443 -163 13 C-163 12.67 -163 12.34 -163 12 C-151.22587462 11.38110676 -139.45167402 10.76366434 -127.67738628 10.1478672 C-122.20472995 9.86160511 -116.73209663 9.57491955 -111.25952148 9.28710938 C-105.96372097 9.00862613 -100.6678592 8.73133531 -95.37195206 8.45488739 C-93.25520178 8.34425411 -91.13846947 8.23327642 -89.02175522 8.12195587 C-77.52240215 7.51783848 -66.02308831 6.94544086 -54.51806641 6.45996094 C-52.52757198 6.3743133 -50.53707819 6.28865077 -48.54658508 6.20297241 C-44.83594088 6.04373045 -41.12508064 5.89534373 -37.41374207 5.75332642 C-35.74431822 5.68276339 -34.07490912 5.61185054 -32.40551758 5.54052734 C-31.29818866 5.50290346 -31.29818866 5.50290346 -30.16848946 5.4645195 C-25.21255058 5.24091941 -20.75130613 4.46578422 -16 3 C-15.67 2.34 -15.34 1.68 -15 1 C-10.19396481 -0.55033393 -4.99180941 -0.0872355 0 0 Z " fill="#B3B1B0" transform="translate(435,408)"/>
<path d="M0 0 C-0.33 0.99 -0.66 1.98 -1 3 C-6.29565245 4.70986705 -11.4045635 5.34854006 -16.95793152 5.58218384 C-17.71765788 5.62064466 -18.47738424 5.65910548 -19.26013261 5.69873178 C-21.7840342 5.82453926 -24.30831792 5.93889809 -26.83276367 6.05322266 C-28.652097 6.14150926 -30.47139667 6.23049151 -32.29066467 6.32011414 C-37.22086148 6.56088408 -42.15148316 6.79156341 -47.08225799 7.02014971 C-52.26434186 7.26183411 -57.4460211 7.51192064 -62.62776184 7.76083374 C-71.34232286 8.17816341 -80.05716649 8.58911729 -88.7722168 8.99609375 C-98.79820492 9.46434772 -108.82372631 9.94170605 -118.84903544 10.42426455 C-128.53542207 10.89036522 -138.22207387 11.35070712 -147.90886879 11.80823898 C-152.00844781 12.00192066 -156.10793503 12.19739879 -160.20735741 12.39436722 C-165.0605654 12.62723126 -169.91399105 12.85493909 -174.76761436 13.07897377 C-176.53108101 13.16112371 -178.29447372 13.24488267 -180.05777359 13.3305378 C-192.7131437 13.94371954 -205.33034861 14.09055363 -218 14 C-215.29958534 10.09167671 -215.29958534 10.09167671 -212.60331726 9.2665863 C-210.17739007 9.01816519 -207.78395593 8.81973841 -205.34692383 8.73461914 C-204.44914719 8.70102798 -203.55137054 8.66743683 -202.62638855 8.63282776 C-201.66300064 8.60059616 -200.69961273 8.56836456 -199.70703125 8.53515625 C-197.62580885 8.45781552 -195.54459159 8.38033628 -193.46337891 8.30273438 C-192.37776672 8.26365967 -191.29215454 8.22458496 -190.17364502 8.18432617 C-184.53584799 7.97998175 -178.898751 7.75948372 -173.26171875 7.53515625 C-172.22980911 7.49648941 -171.19789948 7.45782257 -170.13471985 7.41798401 C-161.74432443 7.08506483 -153.3914804 6.45118663 -145.02609253 5.73451233 C-128.10220778 4.29472586 -111.07042968 4.0041536 -94.10165405 3.37953186 C-82.27425493 2.94183387 -70.44960758 2.44433613 -58.625 1.9375 C-56.73934005 1.85740174 -54.85367926 1.77732304 -52.96801758 1.69726562 C-45.74937421 1.38890615 -38.53111171 1.07875846 -31.31469727 0.72143555 C-30.37890839 0.6753566 -29.44311951 0.62927765 -28.47897339 0.58180237 C-26.71392764 0.49415076 -24.94896458 0.40480848 -23.18411255 0.31333923 C-15.45242798 -0.07129741 -7.73991182 -0.09852787 0 0 Z " fill="#929191" transform="translate(420,409)"/>
<path d="M0 0 C0.89203125 0.01804687 1.7840625 0.03609375 2.703125 0.0546875 C3.71632813 0.08949219 3.71632813 0.08949219 4.75 0.125 C3.76 0.62 3.76 0.62 2.75 1.125 C2.90146484 1.86661377 3.05292969 2.60822754 3.20898438 3.37231445 C3.8923337 6.72677117 4.57121815 10.0821162 5.25 13.4375 C5.48847656 14.60474609 5.72695312 15.77199219 5.97265625 16.97460938 C6.19824219 18.09287109 6.42382812 19.21113281 6.65625 20.36328125 C6.86572266 21.39493408 7.07519531 22.42658691 7.29101562 23.48950195 C7.75 26.125 7.75 26.125 7.75 29.125 C8.41 29.125 9.07 29.125 9.75 29.125 C11.3881115 34.67273761 12.82412346 40.15026909 13.6875 45.875 C14.60950141 51.82190911 16.13892237 57.51699344 17.7421875 63.3125 C19.0017674 68.07742239 19.99430054 72.87540401 20.94140625 77.7109375 C21.55960749 80.32112052 22.26965722 82.66951596 23.1628418 85.18212891 C24.87065325 90.25875413 25.93025244 95.37426168 26.953125 100.625 C28.9500491 110.52376269 31.15841845 120.36206734 33.484375 130.1875 C33.64722488 130.8768161 33.81007477 131.5661322 33.9778595 132.27633667 C35.31961651 137.95439015 36.66819579 143.63081621 38.01934814 149.30664062 C39.0390778 153.5904844 40.05547379 157.8750897 41.06708527 162.16085815 C41.53408919 164.13349249 42.00595978 166.1049727 42.47796631 168.07641602 C43.90005522 174.09949942 45.08608215 179.97426242 45.75 186.125 C46.36709587 188.14084651 47.03293018 190.14251285 47.75 192.125 C49.11899454 196.47357088 49.91972139 200.53969319 50.41235352 205.06591797 C50.7572972 207.16950077 51.34442261 208.95078731 52.08984375 210.9453125 C54.34211946 217.51540501 55.53865016 224.32282878 56.875 231.125 C57.3938722 233.75096099 57.9183009 236.37564272 58.4453125 239 C58.67234863 240.15242187 58.89938477 241.30484375 59.13330078 242.4921875 C59.4850767 245.0358124 59.4850767 245.0358124 60.75 246.125 C60.82179964 247.64428038 60.83392007 249.16667482 60.8125 250.6875 C60.80347656 251.51378906 60.79445313 252.34007812 60.78515625 253.19140625 C60.77355469 253.82949219 60.76195312 254.46757812 60.75 255.125 C61.41 255.125 62.07 255.125 62.75 255.125 C65.95006062 267.50840092 69.01013758 279.87434985 71.41650391 292.43847656 C72.41074358 297.5850055 73.6402157 302.59275949 75.1015625 307.62890625 C76.08309782 311.40722594 76.62170589 315.23972121 77.22265625 319.09375 C77.92681528 323.14136041 78.9345146 327.082501 79.9609375 331.05859375 C81.82518186 338.30330576 83.55257585 345.53075753 84.625 352.9375 C85.35958365 357.59998132 86.58118459 361.96711177 88.0625 366.4375 C90.32803203 373.30827799 92.02238054 380.24505674 93.5625 387.3125 C93.78139893 388.30483643 94.00029785 389.29717285 94.22583008 390.31958008 C95.15500233 394.68552959 95.86738282 398.64397335 95.75 403.125 C89.81170794 397.18670794 89.23513913 385.26756374 87.6875 377.375 C87.18138219 374.7956784 86.66860825 372.21796603 86.15234375 369.640625 C85.81964478 367.94341309 85.81964478 367.94341309 85.48022461 366.21191406 C84.8028806 363.34854476 83.85703123 360.841982 82.75 358.125 C82.35869297 356.50078507 82.0125809 354.86516493 81.70703125 353.22265625 C81.52382324 352.26456055 81.34061523 351.30646484 81.15185547 350.31933594 C80.86012451 348.76907715 80.86012451 348.76907715 80.5625 347.1875 C77.92089927 333.55173137 74.77584716 320.0571709 71.55761719 306.54882812 C70.78199316 303.26063242 70.03396585 299.96714243 69.2890625 296.671875 C68.21981647 292.01041506 67.03504621 287.39359599 65.78515625 282.77734375 C63.71972048 275.12354397 61.91637585 267.42322484 60.1875 259.6875 C60.03559204 259.01278656 59.88368408 258.33807312 59.72717285 257.64291382 C57.76287396 248.91391545 55.93577459 240.17898588 54.36328125 231.37109375 C53.20554971 225.24322806 51.7993253 219.14952588 49.75390625 213.25390625 C48.63206225 209.7574197 47.92948215 206.29540253 47.25 202.6875 C46.56436402 199.05437458 45.85746349 195.50043038 44.83984375 191.9453125 C43.28391447 186.49119481 42.06772504 180.9674461 40.8125 175.4375 C39.32013427 168.87643431 37.81416452 162.32520415 36.15234375 155.8046875 C34.98871081 151.19761222 34.05195539 146.62034663 33.25 141.9375 C32.36122419 136.94460205 31.2470791 132.22500151 29.50390625 127.4609375 C28.1628008 123.30559522 27.37151737 119.02325427 26.49609375 114.75 C25.94934811 112.09356044 25.37798138 109.44980015 24.78125 106.8046875 C23.88731946 102.80928758 23.08476997 98.80092208 22.30444336 94.78198242 C20.93225592 87.71947329 19.48414143 80.75913448 17.46875 73.84765625 C16.22148042 69.12294485 15.38348228 64.31074024 14.49609375 59.5078125 C13.83504046 56.51057611 12.89845865 53.95460664 11.75 51.125 C11.625 47.8125 11.625 47.8125 11.75 45.125 C10.76 45.125 9.77 45.125 8.75 45.125 C7.02929403 39.63021226 5.46954664 34.1618503 4.28125 28.52734375 C3.67144439 25.76976692 2.96085115 23.04572267 2.25 20.3125 C0.72567194 14.30030252 -0.32612631 8.25517365 -1.25 2.125 C-3.89 2.125 -6.53 2.125 -9.25 2.125 C-6.03817851 0.21891902 -3.71117397 -0.09766247 0 0 Z " fill="#949494" transform="translate(110.25,8.875)"/>
<path d="M0 0 C0 0.99 0 1.98 0 3 C-2.48639746 4.24319873 -4.37317165 4.26024751 -7.1550293 4.4362793 C-8.27867386 4.50877396 -9.40231842 4.58126862 -10.56001282 4.65596008 C-11.82282578 4.73211044 -13.08563873 4.8082608 -14.38671875 4.88671875 C-15.74875924 4.97124211 -17.11079417 5.0558553 -18.4728241 5.14054871 C-37.16062021 6.28870035 -55.85685657 7.30388741 -74.55456734 8.27523994 C-80.31270243 8.57453872 -86.07035557 8.88016578 -91.82739258 9.19995117 C-97.4839852 9.51404505 -103.14117662 9.81326623 -108.79913902 10.10159874 C-110.93853538 10.21316099 -113.0776615 10.33003806 -115.21647072 10.45234108 C-118.17217865 10.62034589 -121.12824911 10.76923659 -124.08520508 10.91333008 C-124.96438599 10.96772751 -125.84356689 11.02212494 -126.74938965 11.07817078 C-129.17170715 11.18440247 -129.17170715 11.18440247 -133 11 C-135 8 -135 8 -135 5 C-131.8433964 4.09657737 -128.86873694 3.7869003 -125.59350586 3.61108398 C-124.50431351 3.55110733 -123.41512115 3.49113068 -122.29292297 3.42933655 C-121.11215683 3.36886642 -119.93139069 3.3083963 -118.71484375 3.24609375 C-117.48271652 3.18082993 -116.25058929 3.1155661 -114.98112488 3.04832458 C-111.65448557 2.87475229 -108.32769772 2.70567776 -105.0006485 2.54024506 C-102.9376127 2.43750561 -100.87465836 2.33323149 -98.81170654 2.2288208 C-80.22453973 1.29431132 -61.70057442 0.75500481 -43.08984375 0.9609375 C-34.90387926 1.04656245 -26.76855267 0.66788607 -18.59765625 0.22265625 C-12.39780418 -0.10732961 -6.20750039 -0.09533704 0 0 Z " fill="#A2A09F" transform="translate(399,422)"/>
<path d="M0 0 C1.93242285 3.34520258 2.5463853 6.44767482 3.125 10.25 C3.29257813 11.32765625 3.46015625 12.4053125 3.6328125 13.515625 C3.75398437 14.33546875 3.87515625 15.1553125 4 16 C4.66 16 5.32 16 6 16 C6.33 15.34 6.66 14.68 7 14 C7 14.66 7 15.32 7 16 C7.54118973 15.84572037 8.08237946 15.69144073 8.63996887 15.53248596 C18.68219574 13.26669177 29.5645902 13.7124357 39.83203125 13.31640625 C41.34062705 13.25630793 42.84921245 13.19594796 44.35778809 13.13534546 C47.53524359 13.00800339 50.71274382 12.88188173 53.89028931 12.75680542 C62.17712078 12.4303005 70.46359518 12.09495235 78.75 11.7578125 C79.56202692 11.72481741 80.37405384 11.69182232 81.21068764 11.65782738 C94.32490278 11.12366076 107.43338138 10.51549789 120.54003906 9.81915283 C137.54737982 8.91972616 154.56506544 8.30009179 171.58520508 7.69702148 C172.65959839 7.65786621 173.7339917 7.61871094 174.84094238 7.57836914 C176.8426421 7.50544319 178.84442893 7.43485017 180.84631348 7.3671875 C186.43624333 7.16145953 191.97800768 6.76146653 197.54588318 6.22636414 C202.72760333 5.74840987 207.92605271 5.61575171 213.125 5.4375 C214.92662598 5.37381226 214.92662598 5.37381226 216.76464844 5.30883789 C228.84363492 4.91564584 240.91615212 4.89637861 253 5 C251.35288944 7.00462809 250.44232434 7.91405406 247.85644531 8.41650391 C246.60492676 8.44623291 246.60492676 8.44623291 245.328125 8.4765625 C244.37180176 8.5067749 243.41547852 8.5369873 242.43017578 8.56811523 C240.85598877 8.59627319 240.85598877 8.59627319 239.25 8.625 C238.13222168 8.65730713 237.01444336 8.68961426 235.86279297 8.72290039 C233.45849375 8.79166567 231.05401498 8.85436869 228.64941406 8.91162109 C222.80686061 9.05311189 216.96614685 9.24761752 211.125 9.4375 C209.87251465 9.47705811 208.6200293 9.51661621 207.32958984 9.55737305 C178.54097756 10.47362045 149.75248034 11.53848627 120.99612427 13.19210815 C110.60268137 13.78895144 100.21902959 14.21462427 89.8125 14.5 C79.88617327 14.77548891 70.0448893 15.3278081 60.15454102 16.19921875 C52.33896877 16.84297245 44.53102483 17.20832347 36.6953125 17.50390625 C35.59716217 17.54563461 34.49901184 17.58736298 33.36758423 17.63035583 C27.78857572 17.83913354 22.2093892 18.0341758 16.62939453 18.21459961 C14.54979799 18.28871205 12.47020786 18.36300454 10.390625 18.4375 C9.43229767 18.46457535 8.47397034 18.4916507 7.48660278 18.51954651 C-0.98139964 18.73652404 -0.98139964 18.73652404 -8 23 C-8.99 22.67 -9.98 22.34 -11 22 C-6.73688282 17.87010523 -3.71241466 17.38728235 2 17 C1.855625 16.443125 1.71125 15.88625 1.5625 15.3125 C0.28453328 10.05863683 -0.19646963 5.40291471 0 0 Z " fill="#5A5A5A" transform="translate(210,400)"/>
<path d="M0 0 C2.3125 -0.3125 2.3125 -0.3125 5 0 C8.03064694 3.96137862 9.02239016 8.34102541 10.0625 13.125 C10.23458984 13.88417725 10.40667969 14.64335449 10.58398438 15.42553711 C11.48540188 19.4566385 12.29973602 23.49105368 13 27.5625 C13.85907643 32.54514331 15.0563922 37.4208369 16.30917358 42.3155365 C17.66502528 47.61940285 18.94890342 52.93783411 20.20703125 58.265625 C21.94529614 65.60311887 23.70999297 72.93367647 25.49659729 80.259552 C26.66772716 85.07055473 27.82766082 89.88422471 28.98632812 94.69824219 C29.58509376 97.17555274 30.18837813 99.65177496 30.79589844 102.12695312 C31.68568283 105.75636182 32.55923529 109.38935075 33.4296875 113.0234375 C33.70352264 114.12448822 33.97735779 115.22553894 34.25949097 116.35995483 C35.60086066 122.03304862 36.24368111 126.29669762 35 132 C35.31925281 134.70391216 35.31925281 134.70391216 36 137.1875 C36.84738839 140.55057269 37.09868938 142.68104251 36 146 C33.6110941 139.35513069 31.69108573 132.92494671 30.5546875 125.95703125 C29.67119547 121.24714766 28.34199612 116.6655435 27.07421875 112.046875 C25.73266715 107.09007943 24.59385075 102.08668582 23.48291016 97.07373047 C22.66852592 93.49236015 21.70408798 90.05070431 20.4921875 86.58203125 C18.91400452 81.96743803 18.0155575 77.36036259 17.1875 72.5625 C15.07842886 60.94580337 12.42058521 49.47552237 9.70507812 37.98779297 C9.06263731 35.26542778 8.42775118 32.54147056 7.796875 29.81640625 C6.01009034 22.0414376 6.01009034 22.0414376 3.921875 14.34375 C2.94827059 10.81237129 2.59388954 7.55124559 2.34375 3.91796875 C2.14647357 1.76562548 2.14647357 1.76562548 0 0 Z " fill="#7A7A7A" transform="translate(116,10)"/>
<path d="M0 0 C0.495 0.99 0.495 0.99 1 2 C2.98 2 4.96 2 7 2 C7.12117188 2.556875 7.24234375 3.11375 7.3671875 3.6875 C8.21835902 7.56360416 9.10058274 11.41575253 10.125 15.25 C10.86256086 18.41097511 11.07710838 20.80551001 11 24 C6.0195719 24.14387223 1.03910365 24.28623397 -3.94140625 24.42724609 C-5.63282412 24.47534175 -7.32423067 24.52383742 -9.015625 24.57275391 C-11.45830403 24.64332659 -13.90102127 24.71242139 -16.34375 24.78125 C-17.08991577 24.80312378 -17.83608154 24.82499756 -18.6048584 24.84753418 C-23.40524142 24.98099004 -28.1977355 25.01898128 -33 25 C-31.44191344 14.44191344 -31.44191344 14.44191344 -27 10 C-26.34 10.33 -25.68 10.66 -25 11 C-25.33 12.65 -25.66 14.3 -26 16 C-26.66 16 -27.32 16 -28 16 C-28 16.66 -28 17.32 -28 18 C-27.401875 17.67 -26.80375 17.34 -26.1875 17 C-24 16 -24 16 -21 16 C-21 15.34 -21 14.68 -21 14 C-18.9610296 12.6207843 -16.9374203 11.35823314 -14.8125 10.125 C-10.62907466 7.67184311 -6.7465751 5.09302746 -3 2 C-2.01 1.34 -1.02 0.68 0 0 Z " fill="#535353" transform="translate(188,430)"/>
<path d="M0 0 C-0.33 1.32 -0.66 2.64 -1 4 C-1.66 4 -2.32 4 -3 4 C-3 4.66 -3 5.32 -3 6 C-3.83994255 5.98428955 -3.83994255 5.98428955 -4.69685364 5.96826172 C-18.52776363 5.750228 -32.26864189 6.10722719 -46.07421875 6.875 C-46.86598637 6.91894897 -47.65775398 6.96289795 -48.47351456 7.00817871 C-54.21207019 7.32925171 -59.9498248 7.66361661 -65.6875 8 C-72.23264089 8.38282053 -78.778047 8.76019469 -85.32421875 9.125 C-86.10428158 9.16862671 -86.88434441 9.21225342 -87.6880455 9.25720215 C-100.13368353 9.9436546 -112.53381423 10.25038437 -125 10 C-125.33 8.68 -125.66 7.36 -126 6 C-119.84949306 5.1469406 -113.75267667 4.71111908 -107.55175781 4.42749023 C-106.02810104 4.35411942 -106.02810104 4.35411942 -104.47366333 4.27926636 C-101.13362307 4.11927641 -97.79339102 3.96379343 -94.453125 3.80859375 C-92.11675127 3.69811148 -89.78038666 3.58743644 -87.44403076 3.47657776 C-82.55197168 3.24515869 -77.65981535 3.01595121 -72.76757812 2.78833008 C-66.52256516 2.49760941 -60.27781634 2.2016031 -54.03313065 1.90394497 C-49.20828861 1.67452465 -44.38332091 1.44784117 -39.55831146 1.22197151 C-37.2571709 1.1139442 -34.95606826 1.00510552 -32.65500641 0.89541435 C-29.42539966 0.74189209 -26.19564164 0.59204594 -22.96582031 0.44311523 C-22.0303537 0.39793259 -21.09488708 0.35274994 -20.131073 0.30619812 C-13.41756945 0.00208402 -6.71983969 -0.04674449 0 0 Z " fill="#A19F9F" transform="translate(392,428)"/>
<path d="M0 0 C1.80476105 3.25641668 2.73948805 6.45336795 3.625 10.0625 C4.01558594 11.62677734 4.01558594 11.62677734 4.4140625 13.22265625 C5 16 5 16 5 19 C5.66 19 6.32 19 7 19 C10.85939258 32.66368802 13.97472931 46.51047586 17.15820312 60.34326172 C17.9092904 63.60596044 18.66495982 66.86755608 19.421875 70.12890625 C21.66728401 79.85393185 23.783971 89.5906862 25.65698242 99.39501953 C26.55021166 104.01530489 27.69573255 108.47434909 29 113 C29.48102755 115.34963457 29.93874238 117.70414264 30.375 120.0625 C31.97172551 128.37551101 33.81381728 136.83542897 37.12109375 144.6484375 C38 147 38 147 38 151 C36.68 151 35.36 151 34 151 C33.75765625 149.80246094 33.5153125 148.60492188 33.265625 147.37109375 C31.16839037 137.13637746 28.76876349 127.07554182 26 117 C24.20921966 110.22474351 22.63865219 103.49217648 21.52734375 96.5703125 C21.04580051 93.93321209 21.04580051 93.93321209 20.03125 91.2265625 C18.766107 87.26819842 18.17405662 83.35125428 17.5625 79.25 C16.64062139 73.38462865 15.53336414 67.78755098 13.68359375 62.1328125 C12.16647737 57.39940938 11.2892558 52.50378167 10.3515625 47.62890625 C8.86247693 39.93529745 7.11465741 32.41770227 5.05078125 24.85546875 C3.91901358 20.70284908 2.81876969 16.54420779 1.75 12.375 C1.4871521 11.38028687 1.4871521 11.38028687 1.21899414 10.36547852 C0.32004579 6.83263415 -0.19558771 3.64631371 0 0 Z " fill="#747474" transform="translate(168,265)"/>
<path d="M0 0 C-2.43707959 2.43707959 -3.2357187 2.31681474 -6.59765625 2.54052734 C-8.10162964 2.64586288 -8.10162964 2.64586288 -9.63598633 2.75332642 C-11.3321106 2.8560939 -11.3321106 2.8560939 -13.0625 2.9609375 C-14.27639404 3.04080902 -15.49028809 3.12068054 -16.7409668 3.20297241 C-35.30592284 4.40392231 -53.89009931 5.32852978 -72.46875 6.28710938 C-77.95092533 6.5699934 -83.43280587 6.85821162 -88.91462708 7.1478672 C-93.19039487 7.3731543 -97.46631236 7.59548997 -101.74227905 7.81696701 C-103.76432176 7.92207635 -105.78631646 8.02811406 -107.80825806 8.13515091 C-117.87653017 8.66668133 -127.91308547 9.19303454 -138 9 C-138 8.01 -138 7.02 -138 6 C-131.91272314 5.1587021 -125.87875721 4.71389824 -119.7421875 4.42749023 C-118.74569183 4.37857635 -117.74919617 4.32966248 -116.72250366 4.27926636 C-113.44015067 4.11911964 -110.15759957 3.96359861 -106.875 3.80859375 C-104.56737775 3.69802745 -102.25976064 3.5873536 -99.95214844 3.47657776 C-95.11045241 3.24498127 -90.2686452 3.01588922 -85.42675781 2.78833008 C-79.29044029 2.49957168 -73.15453703 2.20286581 -67.01870728 1.90394497 C-62.24493782 1.67261988 -57.4709269 1.44660613 -52.69683838 1.22197151 C-50.43906021 1.11495438 -48.18136503 1.00616831 -45.92376709 0.89541435 C-30.60451958 0.14684598 -15.3374108 -0.1429475 0 0 Z " fill="#484848" transform="translate(407,441)"/>
<path d="M0 0 C-1.51867602 4.32773035 -4.80085499 6.28491105 -8.4375 8.75 C-9.70610848 9.63096445 -10.97433291 10.51248218 -12.2421875 11.39453125 C-12.87479492 11.83104004 -13.50740234 12.26754883 -14.15917969 12.71728516 C-17.6895688 15.17732022 -21.1358144 17.75355177 -24.59765625 20.30859375 C-31.26096998 25 -31.26096998 25 -34 25 C-34 25.66 -34 26.32 -34 27 C-36.31 27.66 -38.62 28.32 -41 29 C-41 28.34 -41 27.68 -41 27 C-40.34 27 -39.68 27 -39 27 C-39.15726563 26.29488281 -39.31453125 25.58976562 -39.4765625 24.86328125 C-38.91490634 21.48874058 -38.39639702 21.17688283 -35.7734375 19.16796875 C-34.32044801 18.1553352 -32.8532377 17.16290682 -31.375 16.1875 C-30.22487427 15.40463623 -30.22487427 15.40463623 -29.05151367 14.60595703 C-7.32239908 0 -7.32239908 0 0 0 Z " fill="#2B2B2B" transform="translate(201,419)"/>
<path d="M0 0 C1.97857696 2.96786543 2.61037798 4.86237464 3.4362793 8.27832031 C3.8312989 9.8958017 3.8312989 9.8958017 4.23429871 11.54595947 C4.51147232 12.7115741 4.78864594 13.87718872 5.07421875 15.078125 C5.50635429 16.87802887 5.50635429 16.87802887 5.94721985 18.71429443 C6.55473437 21.25553192 7.15890863 23.79756989 7.76000977 26.34033203 C8.37511389 28.94176408 8.9989115 31.5408518 9.63110352 34.13818359 C10.54152506 37.88608166 11.4349869 41.63764993 12.32421875 45.390625 C12.60746506 46.5481427 12.89071136 47.7056604 13.18254089 48.89825439 C14.5352076 54.71047444 15.30382165 59.16222138 14 65 C14.31925281 67.70391216 14.31925281 67.70391216 15 70.1875 C15.84738839 73.55057269 16.09868938 75.68104251 15 79 C14.3355519 77.25698267 13.69473507 75.50495855 13.0625 73.75 C12.70285156 72.77546875 12.34320313 71.8009375 11.97265625 70.796875 C11.15643581 67.6106651 10.83240715 65.08298568 10.65234375 61.83984375 C10.06780172 53.5374092 8.05098165 45.56332163 6.13427734 37.48706055 C5.49274899 34.78192463 4.86458378 32.07393189 4.23828125 29.36523438 C3.83670061 27.64565494 3.4343846 25.92624704 3.03125 24.20703125 C2.84268433 23.3967598 2.65411865 22.58648834 2.45983887 21.75166321 C1.84309355 18.07471715 1.84309355 18.07471715 0 15 C-0.26189216 12.67206965 -0.4601045 10.3368048 -0.625 8 C-0.76808594 6.081875 -0.76808594 6.081875 -0.9140625 4.125 C-0.94242188 3.09375 -0.97078125 2.0625 -1 1 C-0.67 0.67 -0.34 0.34 0 0 Z " fill="#6B6B6B" transform="translate(137,77)"/>
<path d="M0 0 C0.33 0.66 0.66 1.32 1 2 C2.98 2 4.96 2 7 2 C7.335939 3.4577353 7.66866624 4.91621106 8 6.375 C8.185625 7.18710937 8.37125 7.99921875 8.5625 8.8359375 C9 11 9 11 9 13 C0.75 13 -7.5 13 -16 13 C-16 12.34 -16 11.68 -16 11 C-14.27734375 9.66796875 -14.27734375 9.66796875 -11.9375 8.1875 C-7.86791053 5.5667359 -3.92154414 2.83686172 0 0 Z " fill="#605F5E" transform="translate(188,430)"/>
<path d="M0 0 C1.8702887 3.56863705 2.82120694 6.93948286 3.7421875 10.875 C3.90676453 11.57215118 4.07134155 12.26930237 4.24090576 12.98757935 C4.79085401 15.32385655 5.3332356 17.66181241 5.875 20 C6.26065577 21.65223917 6.6465671 23.30441871 7.03271484 24.95654297 C7.88336433 28.60025879 8.73038708 32.24480068 9.57617188 35.88964844 C10.85347036 41.38464142 12.1504625 46.87486063 13.45028687 52.36456299 C14.57230917 57.11029546 15.6861443 61.85792734 16.79840088 66.60595703 C17.34924977 68.95106103 17.90308132 71.29546642 18.4598999 73.63916016 C19.24495197 76.94758128 20.0183463 80.25852683 20.7890625 83.5703125 C21.02816345 84.56660675 21.2672644 85.562901 21.51361084 86.58938599 C21.72519836 87.50879974 21.93678589 88.4282135 22.15478516 89.37548828 C22.34303864 90.17576447 22.53129211 90.97604065 22.72525024 91.80056763 C23.01993605 94.15959246 22.72589187 95.75340174 22 98 C18.83961979 89.36096696 16.9490012 80.45640566 14.9375 71.5 C12.45395591 60.51855079 9.91934249 49.55547715 7.1875 38.6328125 C6.9568837 37.70688293 6.7262674 36.78095337 6.48866272 35.82696533 C5.58662579 32.20830866 4.68427709 28.58991367 3.76022339 24.97680664 C3.12144376 22.47891427 2.49534573 19.97811841 1.87109375 17.4765625 C1.68091675 16.74994415 1.49073975 16.02332581 1.2947998 15.27468872 C0.01434858 10.08001812 -0.15758664 5.35005009 0 0 Z " fill="#828282" transform="translate(159,183)"/>
<path d="M0 0 C2.3125 -0.3125 2.3125 -0.3125 5 0 C7.9856965 3.92774832 9.05961731 8.26691513 10.125 13 C10.29676758 13.74241943 10.46853516 14.48483887 10.64550781 15.24975586 C12.09550596 21.81627658 12.7660436 28.27375358 13 35 C12.01 35 11.02 35 10 35 C8.11632139 31.66296591 7.3074506 28.42195904 6.5 24.6875 C5.72024235 21.15496157 4.91501449 17.71671496 3.875 14.25 C2.94054895 10.77918183 2.5899564 7.49411674 2.34375 3.91796875 C2.14647357 1.76562548 2.14647357 1.76562548 0 0 Z " fill="#6D6D6D" transform="translate(116,10)"/>
<path d="M0 0 C0.89203125 0.01804687 1.7840625 0.03609375 2.703125 0.0546875 C3.71632813 0.08949219 3.71632813 0.08949219 4.75 0.125 C3.76 0.62 3.76 0.62 2.75 1.125 C3.01478149 2.27162109 3.01478149 2.27162109 3.28491211 3.44140625 C9.70775986 31.52367648 9.70775986 31.52367648 9.75 45.125 C7.01685029 42.39185029 7.04383548 40.16769062 6.375 36.375 C5.40871987 31.12721933 4.22269006 26.05670255 2.6875 20.9375 C0.83776396 14.72210344 -0.35666725 8.54289055 -1.25 2.125 C-3.89 2.125 -6.53 2.125 -9.25 2.125 C-6.03817851 0.21891902 -3.71117397 -0.09766247 0 0 Z " fill="#898989" transform="translate(110.25,8.875)"/>
<path d="M0 0 C1.93242285 3.34520258 2.5463853 6.44767482 3.125 10.25 C3.29257813 11.32765625 3.46015625 12.4053125 3.6328125 13.515625 C3.75398437 14.33546875 3.87515625 15.1553125 4 16 C4.66 16 5.32 16 6 16 C6.33 15.34 6.66 14.68 7 14 C7 14.66 7 15.32 7 16 C7.53625 15.84660156 8.0725 15.69320313 8.625 15.53515625 C17.48108938 13.53962295 26.97121407 13.85358726 36 14 C36 14.33 36 14.66 36 15 C40.29 15.33 44.58 15.66 49 16 C49 16.33 49 16.66 49 17 C48.39944794 17.02061493 47.79889587 17.04122986 47.18014526 17.06246948 C40.91785686 17.27918096 34.65611036 17.50832633 28.39453125 17.74462891 C26.05903484 17.83114077 23.72341956 17.91450395 21.38769531 17.99462891 C18.02632863 18.11048878 14.66555514 18.23774361 11.3046875 18.3671875 C10.26384003 18.40061249 9.22299255 18.43403748 8.15060425 18.46847534 C-0.66973705 18.64696982 -0.66973705 18.64696982 -8 23 C-8.99 22.67 -9.98 22.34 -11 22 C-6.73688282 17.87010523 -3.71241466 17.38728235 2 17 C1.855625 16.443125 1.71125 15.88625 1.5625 15.3125 C0.28453328 10.05863683 -0.19646963 5.40291471 0 0 Z " fill="#6E6E6E" transform="translate(210,400)"/>
<path d="M0 0 C5.60646591 1.91455813 11.1204422 4.06045886 16.63769531 6.21630859 C17.83265625 6.67972656 19.02761719 7.14314453 20.25878906 7.62060547 C23.17809081 8.75329455 26.09600135 9.88942508 29.01269531 11.02880859 C28.68269531 12.01880859 28.35269531 13.00880859 28.01269531 14.02880859 C23.27155465 13.4130346 19.06441926 12.06331212 14.64550781 10.30615234 C13.9659201 10.04121475 13.2863324 9.77627716 12.58615112 9.50331116 C10.43449816 8.66306124 8.28609749 7.81483111 6.13769531 6.96630859 C4.67175765 6.39220905 3.20561372 5.8186359 1.73925781 5.24560547 C-1.83867757 3.84608381 -5.41372012 2.43940069 -8.98730469 1.02880859 C-8.98730469 0.36880859 -8.98730469 -0.29119141 -8.98730469 -0.97119141 C-5.79349363 -2.56809693 -3.29134945 -1.04046437 0 0 Z " fill="#928928" transform="translate(249.9873046875,483.97119140625)"/>
<path d="M0 0 C0.33 0 0.66 0 1 0 C2.35121715 5.67009323 3.70211227 11.34026305 5.05273438 17.01049805 C5.51033244 18.93141655 5.96801203 20.85231564 6.42578125 22.77319336 C7.52999058 27.40675597 8.6327547 32.04065017 9.73242188 36.67529297 C10.5526025 40.12974408 11.38228749 43.58166989 12.22070312 47.03173828 C12.40836243 47.81078018 12.59602173 48.58982208 12.78936768 49.39247131 C13.13760473 50.83803778 13.48922043 52.28279636 13.84490967 53.72654724 C14.61974398 56.96107084 15 59.64186883 15 63 C14.01 63 13.02 63 12 63 C10.22722238 55.6574317 8.66590076 48.31374911 7.34326172 40.87695312 C6.51482772 36.37822852 5.53252159 31.93149632 4.4765625 27.48046875 C4.06724487 25.75509888 4.06724487 25.75509888 3.6496582 23.99487305 C3.10153698 21.70663879 2.5456753 19.42024153 1.98120117 17.13598633 C0.57313255 11.26170698 -0.32995693 6.04187806 0 0 Z " fill="#818181" transform="translate(182,281)"/>
<path d="M0 0 C-0.598125 0.28875 -1.19625 0.5775 -1.8125 0.875 C-4.19327792 2.04742026 -4.19327792 2.04742026 -7 4 C-7 3.34 -7 2.68 -7 2 C-19.01995131 7.00054822 -29.75936824 13.2541504 -40.19921875 20.9609375 C-43 23 -43 23 -45 24 C-44.67 22.68 -44.34 21.36 -44 20 C-43.01 20 -42.02 20 -41 20 C-41 19.34 -41 18.68 -41 18 C-38.77727913 16.43399212 -36.56311296 14.9829533 -34.25 13.5625 C-32.98351194 12.77351913 -31.71786502 11.9831862 -30.453125 11.19140625 C-29.85564453 10.81773926 -29.25816406 10.44407227 -28.64257812 10.05908203 C-26.6872174 8.79832775 -24.82943105 7.43675015 -23 6 C-24.65 6 -26.3 6 -28 6 C-20.02082739 -0.57867118 -9.87349792 -0.42382265 0 0 Z " fill="#3F3F3F" transform="translate(208,417)"/>
<path d="M0 0 C-4.25068704 4.25068704 -12.47405665 3.05584447 -18.18408203 3.11352539 C-20.458665 3.11336926 -22.73325238 3.10785183 -25.0078125 3.09765625 C-26.2144455 3.0962413 -27.42107849 3.09482635 -28.66427612 3.09336853 C-32.48454359 3.08781082 -36.30475052 3.07526628 -40.125 3.0625 C-42.72916581 3.05747953 -45.33333256 3.05291758 -47.9375 3.04882812 C-54.29168701 3.03785527 -60.64583918 3.02115974 -67 3 C-67 2.67 -67 2.34 -67 2 C-20.6163353 -0.38776806 -20.6163353 -0.38776806 0 0 Z " fill="#535353" transform="translate(407,441)"/>
<path d="M0 0 C1.83056947 3.28460717 2.72054039 6.48519812 3.5859375 10.13671875 C3.87525146 11.34658447 4.16456543 12.5564502 4.46264648 13.80297852 C4.76372314 15.08487061 5.0647998 16.3667627 5.375 17.6875 C5.68721454 19.00391193 5.99979714 20.32023662 6.31274414 21.63647461 C6.92960806 24.2339582 7.54342673 26.83210238 8.15576172 29.43066406 C8.87576343 32.47474301 9.60703741 35.5155767 10.34765625 38.5546875 C10.71098852 40.05727933 11.07427484 41.55988227 11.4375 43.0625 C11.74558594 44.33222656 12.05367187 45.60195313 12.37109375 46.91015625 C13 50 13 50 13 54 C12.34 54 11.68 54 11 54 C10.49595192 51.89679937 9.99689492 49.79240209 9.5 47.6875 C9.2215625 46.51574219 8.943125 45.34398437 8.65625 44.13671875 C8 41 8 41 8 38 C7.34 38 6.68 38 6 38 C3.84499791 31.19875228 2.44355376 24.34446583 1.3125 17.3125 C1.11563599 16.11983521 1.11563599 16.11983521 0.91479492 14.90307617 C0.13675229 9.87528225 -0.12208844 5.08701854 0 0 Z " fill="#848484" transform="translate(197,345)"/>
<path d="M0 0 C-1.70578286 2.11601659 -2.62473465 2.92793021 -5.33398438 3.44824219 C-6.24470703 3.48079102 -7.15542969 3.51333984 -8.09375 3.546875 C-9.11605713 3.58756104 -10.13836426 3.62824707 -11.19165039 3.67016602 C-12.28340576 3.69651123 -13.37516113 3.72285645 -14.5 3.75 C-15.61173584 3.78601318 -16.72347168 3.82202637 -17.86889648 3.85913086 C-27.62007635 4.11686207 -37.27929818 3.75309371 -47 3 C-47 2.67 -47 2.34 -47 2 C-31.28464994 0.25211598 -15.80753687 -0.25783937 0 0 Z " fill="#565656" transform="translate(463,405)"/>
<path d="M0 0 C5.63045056 8.44567584 7.1298238 20.14979831 9.34741211 30.00561523 C9.81965152 32.09412813 10.30702748 34.17876727 10.79492188 36.26367188 C11.09987358 37.60395875 11.40394409 38.9444465 11.70703125 40.28515625 C11.9800708 41.48019775 12.25311035 42.67523926 12.53442383 43.90649414 C12.96287267 46.75330862 12.97832694 48.33807889 12 51 C9.03538063 42.67083129 7.14895667 34.21817821 5.25 25.59375 C3.9730848 19.90083638 2.60225706 14.38215148 0.5690918 8.90844727 C-0.33612721 5.87279863 -0.20068184 3.14401543 0 0 Z " fill="#858585" transform="translate(135,85)"/>
<path d="M0 0 C1.96271243 2.94406864 2.41774454 4.36400831 3 7.74609375 C3.165 8.66583984 3.33 9.58558594 3.5 10.53320312 C3.665 11.49162109 3.83 12.45003906 4 13.4375 C4.32765268 15.33302196 4.66078877 17.22760609 5 19.12109375 C5.144375 19.9608374 5.28875 20.80058105 5.4375 21.66577148 C5.91234026 24.02335485 5.91234026 24.02335485 7.0546875 26.10180664 C8.37745391 28.75792979 8.13271222 31.08033111 8 34 C6.33388095 34.042721 4.66617115 34.04063832 3 34 C1.18884044 32.18884044 1.61800552 29.38721773 1.4375 26.9375 C1.35371094 25.83277344 1.26992187 24.72804688 1.18359375 23.58984375 C1.09271484 22.30787109 1.09271484 22.30787109 1 21 C1.66 21 2.32 21 3 21 C2.7834375 19.81921875 2.566875 18.6384375 2.34375 17.421875 C2.0623177 15.86461627 1.78107777 14.30732276 1.5 12.75 C1.35691406 11.97269531 1.21382812 11.19539063 1.06640625 10.39453125 C0.93105469 9.64042969 0.79570312 8.88632812 0.65625 8.109375 C0.46772461 7.07248535 0.46772461 7.07248535 0.27539062 6.01464844 C0 4 0 4 0 0 Z " fill="#A2A2A2" transform="translate(204,383)"/>
<path d="M0 0 C0.70178375 0.00141495 1.4035675 0.0028299 2.12661743 0.00428772 C4.34747754 0.00984335 6.56823334 0.02238733 8.7890625 0.03515625 C10.30338395 0.04017699 11.817707 0.04473889 13.33203125 0.04882812 C17.02607502 0.05979818 20.72005856 0.07703176 24.4140625 0.09765625 C24.4140625 0.75765625 24.4140625 1.41765625 24.4140625 2.09765625 C19.3237403 2.24042524 14.23340817 2.38283281 9.14306641 2.52490234 C7.41064174 2.57330498 5.67821984 2.62180717 3.94580078 2.67041016 C1.45866606 2.74016952 -1.02847836 2.8095733 -3.515625 2.87890625 C-4.29275848 2.90078003 -5.06989197 2.92265381 -5.87057495 2.94519043 C-11.35819409 3.09765625 -11.35819409 3.09765625 -13.5859375 3.09765625 C-13.5859375 2.43765625 -13.5859375 1.77765625 -13.5859375 1.09765625 C-9.00036978 0.20101953 -4.6689153 -0.01867566 0 0 Z " fill="#363636" transform="translate(174.5859375,451.90234375)"/>
<path d="M0 0 C1.7435756 3.11930825 2.54645178 5.99110451 3.1875 9.5 C3.36667969 10.4384375 3.54585937 11.376875 3.73046875 12.34375 C4 15 4 15 3.48828125 17.03125 C2.84430257 19.62777204 3.36974293 21.41594601 4 24 C4.83325195 27.41633299 5.12115979 29.63652064 4 33 C1.27999644 25.86473484 -0.44333563 19.34493541 -0.84375 11.70703125 C-0.97872018 9.36867285 -1.26849789 7.17475022 -1.6875 4.875 C-1.790625 3.92625 -1.89375 2.9775 -2 2 C-1.34 1.34 -0.68 0.68 0 0 Z " fill="#6C6C6C" transform="translate(148,123)"/>
<path d="M0 0 C-2.79896164 3.10995738 -4.92689603 4.93745114 -9 6 C-12.34077264 6.15395266 -15.65853814 6.11678896 -19 6 C-17.25 1.125 -17.25 1.125 -15 0 C-13.02637798 -0.25557695 -11.04547619 -0.45674748 -9.0625 -0.625 C-7.47115234 -0.76808594 -7.47115234 -0.76808594 -5.84765625 -0.9140625 C-3 -1 -3 -1 0 0 Z " fill="#BEBBBB" transform="translate(410,426)"/>
<path d="M0 0 C2.41381856 2.90465075 3.59179486 5.36124245 4.5625 9 C5.49548725 12.52635345 5.49548725 12.52635345 7.05078125 15.796875 C8.50127525 19.16345366 8.47177775 22.63650857 8.625 26.25 C8.66367188 26.99507812 8.70234375 27.74015625 8.7421875 28.5078125 C8.83605108 30.3381524 8.91909718 32.16904143 9 34 C6.26685029 31.26685029 6.29383548 29.04269062 5.625 25.25 C4.40709446 18.6221403 2.73565364 12.27877374 0.76953125 5.828125 C0 3 0 3 0 0 Z " fill="#7E7E7E" transform="translate(111,20)"/>
<path d="M0 0 C0.33 0 0.66 0 1 0 C1.96049033 4.25003534 2.92076803 8.50011866 3.88085938 12.75024414 C4.20664907 14.19231423 4.53249414 15.63437182 4.85839844 17.07641602 C5.63324875 20.50500981 6.40727416 23.93378345 7.17919922 27.36303711 C7.67151145 29.54446937 8.16690251 31.72521518 8.66845703 33.90454102 C9.5311171 37.6793486 10.25079444 41.11268621 10 45 C8.00054417 42.00081626 7.48099329 40.28152774 6.78125 36.81640625 C6.57113281 35.80642578 6.36101562 34.79644531 6.14453125 33.75585938 C5.93183594 32.70205078 5.71914062 31.64824219 5.5 30.5625 C5.07801517 28.47942941 4.65111868 26.39734633 4.21875 24.31640625 C4.03248047 23.39287354 3.84621094 22.46934082 3.65429688 21.51782227 C3.02752676 19.10592667 2.10910923 17.2156524 1 15 C0.70585235 12.3915208 0.49362383 9.86466689 0.375 7.25 C0.33632812 6.55261719 0.29765625 5.85523438 0.2578125 5.13671875 C0.16401376 3.42489182 0.08093826 1.71248318 0 0 Z " fill="#7E7E7E" transform="translate(183,320)"/>
<path d="M0 0 C0 0.66 0 1.32 0 2 C-7.20807175 7.07802691 -7.20807175 7.07802691 -11.6015625 6.88671875 C-13.79720187 6.3744029 -15.88716641 5.78419592 -18 5 C-16.53541868 2.61041996 -15.61427191 1.2233716 -12.9375 0.25 C-8.62305337 -0.11718695 -4.32693504 -0.07561634 0 0 Z " fill="#B2AFAF" transform="translate(435,408)"/>
<path d="M0 0 C0.33 1.32 0.66 2.64 1 4 C-7.25 4 -15.5 4 -24 4 C-19.90322595 1.95161298 -16.46021418 1.36788599 -12 0.875 C-11.2884375 0.78863281 -10.576875 0.70226562 -9.84375 0.61328125 C-6.52895959 0.22366969 -3.34278059 0 0 0 Z " fill="#757474" transform="translate(196,439)"/>
<path d="M0 0 C1.97763545 2.96645317 2.54624528 4.72907238 3.2890625 8.1484375 C3.50820312 9.15390625 3.72734375 10.159375 3.953125 11.1953125 C4.17484375 12.24460937 4.3965625 13.29390625 4.625 14.375 C4.85445312 15.4165625 5.08390625 16.458125 5.3203125 17.53125 C6.30438644 22.11187989 7.13918625 26.29635471 7 31 C3.46808442 27.46808442 2.78419843 23.60979323 2.5 18.75 C2.17331476 14.34865887 1.49627647 10.24458328 0.40234375 5.97265625 C0 4 0 4 0 0 Z " fill="#959595" transform="translate(199,381)"/>
<path d="M0 0 C-1.1328125 1.484375 -1.1328125 1.484375 -3 3 C-5.6796875 3.328125 -5.6796875 3.328125 -8.875 3.25 C-10.02097656 3.22421875 -11.16695313 3.1984375 -12.34765625 3.171875 C-17.91055451 2.91009155 -23.45442683 2.50826857 -29 2 C-29 1.67 -29 1.34 -29 1 C-19.33456945 -0.1922117 -9.71824449 -0.09622024 0 0 Z " fill="#6C6C6C" transform="translate(428,406)"/>
<path d="M0 0 C2 2 2 2 2.125 4.625 C2.08375 5.40875 2.0425 6.1925 2 7 C2.66 7 3.32 7 4 7 C5.81774185 14.09784913 7.43230491 20.65081658 7 28 C5.11632139 24.66296591 4.3074506 21.42195904 3.5 17.6875 C2.70018345 14.06599563 1.89953175 10.48384472 0.8125 6.9375 C0 4 0 4 0 0 Z " fill="#8C8C8C" transform="translate(119,17)"/>
<path d="M0 0 C1.75367237 2.63050855 2.38191404 3.93074977 3.0703125 6.87109375 C3.24433594 7.61037109 3.41835937 8.34964844 3.59765625 9.11132812 C3.77167969 9.87896484 3.94570312 10.64660156 4.125 11.4375 C4.30675781 12.20126953 4.48851562 12.96503906 4.67578125 13.75195312 C5.50770462 17.34548677 6 20.26380645 6 24 C5.34 24 4.68 24 4 24 C3.32114013 21.50276548 2.65682573 19.00303859 2 16.5 C1.80921875 15.80390625 1.6184375 15.1078125 1.421875 14.390625 C0.14322988 9.4587081 -0.18357474 5.09419909 0 0 Z " fill="#787878" transform="translate(204,375)"/>
<path d="M0 0 C2.3125 -0.3125 2.3125 -0.3125 5 0 C6.9375 1.9375 6.9375 1.9375 8 5 C7.6474235 8.10059924 6.90329146 11.01718865 6 14 C5.67 14 5.34 14 5 14 C4.70996094 12.73542969 4.70996094 12.73542969 4.4140625 11.4453125 C4.15367188 10.34960938 3.89328125 9.25390625 3.625 8.125 C3.36976562 7.03445312 3.11453125 5.94390625 2.8515625 4.8203125 C2.21093785 1.89591545 2.21093785 1.89591545 0 0 Z " fill="#757575" transform="translate(116,10)"/>
<path d="M0 0 C0.66 0 1.32 0 2 0 C4.09876543 3.45679012 4.09876543 3.45679012 3.625 6.0625 C3.41875 6.701875 3.2125 7.34125 3 8 C3 8.99 3 9.98 3 11 C3 13.66666667 3 16.33333333 3 19 C0.66079238 15.49118857 0.30664933 12.45077429 -0.1875 8.375 C-0.28224609 7.68148438 -0.37699219 6.98796875 -0.47460938 6.2734375 C-0.69877221 4.52120281 -0.85503766 2.7605571 -1 1 C-0.67 0.67 -0.34 0.34 0 0 Z " fill="#98913D" transform="translate(196,430)"/>
<path d="M0 0 C0.33 0 0.66 0 1 0 C1 1.65 1 3.3 1 5 C-5.11980533 6.40454548 -10.71739294 7.23268915 -17 7 C-14.22917166 4.22917166 -11.81929143 4.46903579 -8 4 C-7.01 3.67 -6.02 3.34 -5 3 C-4.29875 2.855625 -3.5975 2.71125 -2.875 2.5625 C-2.25625 2.376875 -1.6375 2.19125 -1 2 C-0.67 1.34 -0.34 0.68 0 0 Z " fill="#6A6866" transform="translate(195,434)"/>
<path d="M0 0 C1.78139294 3.23606752 2.77180919 6.42657245 3.6875 10 C3.95949219 11.03125 4.23148438 12.0625 4.51171875 13.125 C4.98122716 15.88946552 4.93214283 17.39750728 4 20 C1.44672896 13.16088115 -0.5644718 7.33813334 0 0 Z " fill="#808080" transform="translate(148,136)"/>
<path d="M0 0 C3.0390625 -0.29296875 3.0390625 -0.29296875 6.625 -0.1875 C7.81351563 -0.16042969 9.00203125 -0.13335937 10.2265625 -0.10546875 C11.14179688 -0.07066406 12.05703125 -0.03585937 13 0 C12.401875 0.28875 11.80375 0.5775 11.1875 0.875 C8.80672208 2.04742026 8.80672208 2.04742026 6 4 C6 3.34 6 2.68 6 2 C5.4225 2.350625 4.845 2.70125 4.25 3.0625 C1.64198224 4.14917407 0.60582371 3.93065133 -2 3 C-1.34 2.01 -0.68 1.02 0 0 Z " fill="#444444" transform="translate(195,417)"/>
<path d="M0 0 C3.91965887 4.03724864 4.63530967 7.36470933 4.75 12.8125 C4.77964844 13.50537109 4.80929688 14.19824219 4.83984375 14.91210938 C4.90999628 16.60746213 4.95732662 18.30373312 5 20 C3.07815459 16.59916921 2.23082631 13.23685016 1.375 9.4375 C1.11460937 8.30183594 0.85421875 7.16617187 0.5859375 5.99609375 C0 3 0 3 0 0 Z " fill="#909090" transform="translate(167,250)"/>
<path d="M0 0 C2.96635773 3.32394606 3.59598896 6.06436279 4.1875 10.4375 C4.34605469 11.54996094 4.50460938 12.66242188 4.66796875 13.80859375 C4.95564122 16.57363386 5.06745126 19.22412136 5 22 C3.2773441 18.92228424 2.52160527 16.15777247 1.9375 12.6875 C1.77378906 11.72585937 1.61007813 10.76421875 1.44140625 9.7734375 C0.92350342 6.51935774 0.43548372 3.26612789 0 0 Z " fill="#787878" transform="translate(156,211)"/>
<path d="M0 0 C3.70270486 5.5540573 4.22186294 9.45504337 4 16 C3.34 15.67 2.68 15.34 2 15 C0.38962091 9.81100071 -0.22541675 5.41000193 0 0 Z " fill="#939393" transform="translate(135,85)"/>
<path d="M0 0 C3.2645028 3.2645028 3.93236055 7.41047299 4.125 11.9375 C4.08375 12.618125 4.0425 13.29875 4 14 C0.08468337 8.89306527 -0.10265877 6.36484364 0 0 Z " fill="#7E7E7E" transform="translate(177,297)"/>
<path d="M0 0 C1.0625 1.875 1.0625 1.875 2 4 C1.67 4.66 1.34 5.32 1 6 C0.93003986 7.70702735 0.91559846 9.41668003 0.9375 11.125 C0.95103516 12.49011719 0.95103516 12.49011719 0.96484375 13.8828125 C0.97644531 14.58148438 0.98804688 15.28015625 1 16 C-0.95167729 13.07248407 -1.36553384 11.9152711 -1.75 8.5625 C-1.84796875 7.80066406 -1.9459375 7.03882812 -2.046875 6.25390625 C-1.99311664 3.66902511 -1.30508837 2.20359151 0 0 Z " fill="#767676" transform="translate(136,72)"/>
<path d="M0 0 C0.33 0.99 0.66 1.98 1 3 C-2.63 3 -6.26 3 -10 3 C-10 2.34 -10 1.68 -10 1 C-6.56484998 0.37542727 -3.50935186 0 0 0 Z " fill="#7D7B7C" transform="translate(196,439)"/>
<path d="M0 0 C0.89203125 0.01804687 1.7840625 0.03609375 2.703125 0.0546875 C3.71632813 0.08949219 3.71632813 0.08949219 4.75 0.125 C3.43 0.455 2.11 0.785 0.75 1.125 C0.42 2.445 0.09 3.765 -0.25 5.125 C-0.58 4.135 -0.91 3.145 -1.25 2.125 C-3.89 2.125 -6.53 2.125 -9.25 2.125 C-6.03817851 0.21891902 -3.71117397 -0.09766247 0 0 Z " fill="#7A7A7A" transform="translate(110.25,8.875)"/>
<path d="M0 0 C0.33 0 0.66 0 1 0 C2.38529821 5.45461169 3.2396943 10.36718401 3 16 C2.67 16 2.34 16 2 16 C0.61470179 10.54538831 -0.2396943 5.63281599 0 0 Z " fill="#A09834" transform="translate(199,449)"/>
<path d="M0 0 C3.36338044 3.36338044 4 6.28835716 4 11 C3.34 11 2.68 11 2 11 C0.80712589 7.12315913 0 4.08378077 0 0 Z " fill="#808080" transform="translate(202,405)"/>
</svg>
